<svg width="52" height="55" viewBox="0 0 52 55" fill="none" xmlns="http://www.w3.org/2000/svg">
<path d="M16.0526 54.9982C15.8073 54.9982 15.5601 54.9691 15.3184 54.9146C14.6041 54.7494 14.0629 54.3535 13.6553 53.8794L12.158 54.0156C11.772 54.3117 11.3156 54.5133 10.8214 54.5968C10.5021 54.7221 10.0782 54.8384 9.5677 54.8384C9.21414 54.8384 8.86058 54.7821 8.51424 54.6731L6.55164 54.052L6.53901 53.5562C5.09592 53.4908 4.33649 53.2692 3.67808 52.7698C2.52361 51.8962 2.34142 50.8247 2.34683 50.2163L0 51.266L0.382419 46.2807C0.422104 45.725 0.490651 44.7951 1.214 43.9615C1.33486 43.8217 1.46293 43.7 1.59101 43.5928C1.66497 43.4857 1.74794 43.3785 1.84355 43.2732C2.40996 42.6484 3.16578 42.3161 4.09297 42.2888C4.11642 42.2888 4.14708 42.2888 4.18497 42.2852C4.44472 42.2652 4.7153 42.2507 5.00212 42.2434C5.02015 41.5515 5.0418 40.9322 5.05443 40.6834L5.05804 40.5926L5.06706 40.5018C5.0887 40.3129 5.06706 39.9224 5.04902 39.5773C5.01474 38.9035 4.97325 38.1226 5.10133 37.3126C5.01835 36.8695 5.01114 36.2883 5.26728 35.6617C5.37732 33.2717 5.31418 30.7527 5.25466 28.3118L5.2294 27.2675C5.22038 26.8698 5.30877 26.3849 5.42783 25.9599C5.44947 25.4005 5.47112 24.8394 5.49096 24.28C5.5992 21.2162 5.71284 18.0488 6.25761 14.8905L6.36043 14.2912L6.65446 13.8444C6.70136 13.7482 6.78794 13.5393 6.84747 13.3959C7.29302 12.3261 7.84861 10.9949 9.19069 10.3338C10.3758 9.74904 12.8543 9.7327 12.8796 9.7327C13.2602 9.7327 13.5615 9.75994 13.8429 9.8235C14.4688 9.9579 14.9685 10.2467 15.3473 10.6262C15.3563 10.6262 15.3653 10.6262 15.3743 10.6262C16.1897 10.6262 16.9563 10.9386 17.53 11.5034C18.5058 12.466 18.4716 13.4413 18.4048 15.3863C18.3958 15.6533 18.3832 16.0184 18.376 16.3326C19.2689 16.9609 21.3163 17.7691 22.211 17.8018L23.0786 17.602C23.0768 16.9555 23.0714 15.5698 23.0714 15.5698C23.057 15.5062 23.0444 15.4463 23.0353 15.3863C22.873 14.4111 23.1761 13.4267 23.8669 12.6839C24.5831 11.9139 25.3172 11.7958 26.6485 11.5797C26.8902 11.5398 27.2871 11.4762 27.4332 11.4453C28.9989 10.9931 31.169 10.1904 32.5363 9.40034C32.6193 9.35131 32.8141 9.22963 33.0288 9.08978C33.0125 8.43597 32.9295 7.54062 32.8826 7.0321C32.7095 5.15602 32.594 3.9156 33.6511 2.82955C33.9343 2.53896 34.5043 2.08311 35.381 1.96506C35.6011 1.85246 35.8049 1.78163 35.9655 1.73623C35.9727 1.73623 35.9781 1.7326 35.9835 1.73078C36.3064 1.34939 36.7339 0.991613 37.2913 0.681053C37.8613 0.363228 38.637 0 39.5714 0C41.3211 0 42.2754 1.18231 42.8454 1.88879L42.8977 1.95417C46.0761 5.88974 46.0328 12.8437 46.0004 17.9217C46.0004 18.0452 46.0003 18.1687 45.9985 18.2885L46.7959 19.1893L46.1483 20.2917C46.1501 20.3081 46.1537 20.3244 46.1555 20.3426C46.3052 21.4595 46.2547 22.66 46.206 23.8205C46.1789 24.4689 46.1537 25.0827 46.1681 25.5785C46.2006 26.6682 46.224 27.7924 46.2457 28.8785C46.2727 30.1752 46.2998 31.5119 46.3431 32.7795C46.4207 33.0211 46.5181 33.3788 46.5343 33.8075C46.5956 35.3802 46.6966 37.0002 46.7941 38.5657C46.8626 39.6645 46.9329 40.7851 46.9907 41.9111H46.9961C47.1837 41.9002 47.4344 41.8911 47.6942 41.8911C47.8998 41.8911 48.0874 41.8965 48.2624 41.9093C48.3273 41.9056 48.3869 41.9038 48.4446 41.9038C49.5648 41.9038 50.5443 42.4596 51.1179 43.3894C51.4769 43.7654 51.7402 44.2376 51.8737 44.7788C52.2489 46.3098 51.6825 47.3522 51.3109 47.8353C51.0999 48.1096 50.869 48.3257 50.6309 48.4982C50.8636 49.0322 51.0151 49.784 50.795 50.7411L50.2755 52.9859H48.3851C47.5697 53.5344 46.6137 53.7414 45.9408 53.7414C45.1778 53.7414 44.6024 53.4908 44.2055 53.2184C44.1045 53.2202 43.9999 53.222 43.8934 53.222C43.6968 53.222 43.5002 53.2184 43.3054 53.2147C42.7408 53.578 42.0589 53.785 41.3175 53.785C40.9441 53.785 40.5545 53.7323 40.1612 53.6306C40.0079 53.5907 39.8546 53.538 39.7049 53.4708C39.3423 53.538 38.9563 53.5725 38.5414 53.5725C38.1265 53.5725 37.7621 53.5435 37.4302 53.5162C37.3544 53.5108 37.2805 53.5053 37.2101 53.4999C37.0748 53.5725 36.9251 53.6397 36.7628 53.7015C36.5228 53.8231 36.016 54.0629 35.3179 54.0629C34.6198 54.0629 34.0245 53.8032 33.6619 53.587C32.8935 53.6197 31.997 53.6252 31.5334 53.6252C31.1437 53.6252 30.8082 53.6216 30.5196 53.6161C29.9279 54.0865 29.2352 54.3244 28.4487 54.3244C28.0284 54.3244 27.6009 54.2481 27.177 54.0974C26.9966 54.0338 26.8253 53.9503 26.6647 53.8504C25.9197 53.8994 25.2054 53.9085 24.5632 53.9085C24.4207 53.9085 24.2782 53.9085 24.1357 53.9085C23.5476 54.3462 22.8297 54.6041 22.0631 54.6041C21.2964 54.6041 20.5911 54.3625 19.967 53.903C19.8533 53.903 19.7415 53.8994 19.6278 53.8994C19.3086 53.8958 18.9893 53.8903 18.67 53.8903C18.6033 53.8903 18.5383 53.8903 18.4752 53.8903C17.8637 54.595 17.0068 55.0036 16.0544 55.0036L16.0526 54.9982ZM14.1748 15.6025L14.0882 15.4517L14.1044 15.5008L14.1748 15.6025ZM14.0864 15.4735L14.0719 15.4245L14.0268 15.3464L14.0395 15.4063L14.0846 15.4735H14.0864Z" fill="white"/>
<path d="M20.2033 39.7317C20.6074 38.1154 20.2791 36.3119 20.3855 34.6447C20.0987 34.6102 19.7524 34.6937 19.4818 34.6447C19.121 34.5793 18.7566 34.5285 18.3995 34.4631C18.0459 34.3995 17.6527 34.3505 17.3171 34.2815C18.3598 34.5248 18.0134 34.7319 18.0405 35.7362H17.1368C17.1837 35.4928 16.9942 34.2252 17.3189 34.2815C16.5812 34.1307 15.6053 33.5859 14.8837 33.5514C14.4201 33.5296 14.6348 33.9291 14.6131 34.2815C14.6023 34.4613 14.6168 34.6447 14.6131 34.8263C14.5807 36.2447 14.7881 37.8284 14.4328 39.1851C14.4364 39.7281 14.4237 40.2766 14.4328 40.8196C14.4436 41.4225 14.4255 42.0328 14.4328 42.6375C14.7647 42.5068 15.9823 42.9862 15.8777 42.2725C16.7471 42.5268 17.5643 42.8446 18.4031 43.1806C18.1613 42.7865 18.2119 42.3433 18.2227 41.9093C18.201 41.902 18.1541 41.6423 17.9701 41.6187C17.7104 41.586 16.9365 41.8312 16.5992 41.9093C16.6118 41.3336 17.8836 41.0321 18.4031 40.8196C19.1625 40.509 19.8931 40.0078 20.7481 40.0913C20.8202 40.0477 20.5785 39.8262 20.5677 39.7299C20.4541 39.7481 20.3025 39.7008 20.2069 39.7299L20.2033 39.7317ZM16.9582 38.0954C18.0766 37.9283 17.8763 38.702 17.8601 39.5501H16.9564V38.0954H16.9582Z" fill="#164C2C"/>
<path d="M12.4468 44.4537C12.4955 44.628 12.6542 44.6262 12.8076 44.6353L12.9879 44.9985C15.0786 44.8187 17.5373 45.2364 19.5811 45.0076C19.9905 44.9622 20.207 44.9459 20.2034 44.4537C19.94 44.4119 19.5901 44.4646 19.3015 44.4537V44.0905C19.2419 44.0941 19.1806 44.0905 19.1211 44.0905C17.7934 44.401 16.1754 44.3029 14.7918 44.2721C13.4948 44.243 12.6614 44.737 12.8076 43.0008C12.7679 42.9717 12.7498 42.8192 12.6272 42.8192C12.6163 43.1624 12.7119 44.312 12.4468 44.4537Z" fill="#164C2C"/>
<path d="M48.7044 44.9985L48.1632 44.8169C47.8494 44.7824 47.4056 44.7969 47.0809 44.8169C47.0358 44.8205 46.8013 45.004 46.4712 45.0112C44.9019 45.0494 43.3433 44.8332 41.7866 44.9785C41.1877 44.8042 41.691 43.3004 41.3988 42.8173C40.6105 42.8319 41.0867 44.3937 40.9496 44.8169C40.2623 44.737 39.5408 45.1075 39.1457 44.4537V44.272L39.2359 44.0904C37.1038 44.0523 34.9626 44.1449 32.8322 44.0904V44.272C32.4768 44.2957 31.7571 44.6353 31.2087 44.4537H31.0283C30.9995 44.3847 31.077 44.194 30.9977 44.1177C30.9598 44.0814 30.148 44.2085 29.946 44.0904V44.8169C29.8847 44.8169 29.8252 44.8169 29.7656 44.8169C29.9947 43.6727 29.1613 44.1831 28.4145 44.0886L28.5029 44.8169C28.3821 44.8169 28.263 44.8169 28.1422 44.8169C28.2847 43.8053 27.7128 43.8525 26.8794 43.907V44.8169C26.7604 44.8151 26.6395 44.8187 26.5187 44.8169L26.414 43.9052H25.6149V44.8169C25.4959 44.8133 25.3732 44.8223 25.2542 44.8169V43.907C24.5976 43.9288 24.2169 43.6691 24.3522 44.4537H24.1718C24.3396 43.6146 23.7606 43.9597 23.0877 43.9088V44.6353C23.0282 44.6353 22.9687 44.6371 22.9091 44.6353C23.0715 43.6055 22.6422 43.9379 21.825 43.9088V44.6353C21.7655 44.6371 21.706 44.6353 21.6464 44.6353C21.5021 43.9379 21.1955 44.0596 20.5641 44.0904L20.3837 44.4537C20.4018 44.4627 20.5316 44.7388 20.5641 44.8169C20.5677 44.826 20.2214 44.9567 20.4739 44.9985H29.2227C28.3514 45.0094 27.2907 45.1692 26.3365 45.1801C25.3768 45.1892 24.41 45.1729 23.4503 45.1801C22.4906 45.1874 21.5238 45.1783 20.5641 45.1801C18.0423 45.1856 15.5097 45.2019 12.9879 45.1801C12.0878 45.1729 11.1804 45.1856 10.2803 45.1801C10.2659 44.6662 10.3019 44.1431 10.2803 43.6273C10.2659 43.2768 10.4661 42.899 9.91951 43.0008C9.57497 43.5892 9.67599 44.5445 9.91951 45.1783C9.80046 45.1892 9.67779 45.171 9.55874 45.1783C7.89738 45.3091 6.07187 45.0457 4.40871 45.1783C3.85492 45.2219 3.94511 45.0893 3.96676 45.7231C12.7967 45.1801 22.543 45.8049 31.4973 45.7359C31.8274 45.734 32.0746 45.5415 32.107 45.5415C33.0667 45.5343 34.0336 45.5506 34.9932 45.5415C36.4327 45.527 37.883 45.5506 39.3225 45.5415C42.1167 45.5252 44.9181 45.5742 47.7123 45.5452C48.0171 45.5415 48.515 45.6614 48.7026 45.3599C48.6629 45.3145 48.7387 45.0893 48.7026 44.9967L48.7044 44.9985Z" fill="#164C2C"/>
<path d="M8.47816 37.28C8.95439 36.8441 9.34402 36.1993 10.0998 36.2811L9.74087 39.3667C9.74989 40.1513 9.73365 40.9413 9.74087 41.7259C10.1395 41.9275 10.1305 41.379 10.2802 41.3645C10.2947 41.3645 10.3686 41.5334 10.457 41.5479C10.5183 40.7215 10.3848 39.8171 10.4606 39.0035H10.2802C10.2802 38.4968 10.1846 36.3101 10.4823 36.1194L12.6252 36.4609V37.9138C12.8183 38.1027 12.7641 38.4241 12.9193 38.4695C13.2025 38.5513 13.7328 38.3969 14.0683 38.4586C14.0774 37.6759 13.9872 36.904 14.0683 36.0976C13.5921 36.0686 13.0997 36.1394 12.6252 36.0976C12.3096 36.0704 11.9181 35.9614 11.5429 35.916C11.1623 35.8706 10.4642 36.0922 10.3055 35.6182C10.2369 35.413 10.4372 32.6415 10.4606 32.1021C10.4949 31.3375 10.5995 30.651 10.641 29.9228C10.733 28.2937 10.8232 26.6519 10.8214 25.0192C11.505 24.8267 12.0877 25.2807 12.6252 25.3824C12.7371 25.4042 12.876 25.3588 12.986 25.3824C13.4622 25.4823 13.9276 25.6076 14.4291 25.564C14.4345 25.2607 14.4255 24.9593 14.4291 24.656C14.0557 24.7141 13.4965 24.5724 13.1664 24.656C12.9319 24.7159 13.0005 24.8412 12.986 25.0192L10.8232 24.6541L11.1822 15.0304C10.6807 14.876 10.6897 15.9076 10.6464 16.2145C10.2586 18.9224 10.3524 21.9626 10.2838 24.7086C10.2478 24.8412 9.57491 25.2008 9.37829 25.3824C9.18348 25.564 8.36633 26.3323 8.29597 26.4721C8.23825 26.5865 8.11198 27.0787 8.11559 27.1986C8.37895 27.2458 8.47095 27.1641 8.65675 27.0169C8.85698 26.8589 9.03736 26.8244 9.01752 26.4721C9.35304 26.0726 9.63985 25.4623 10.2802 25.564C10.3073 26.2869 10.2441 27.0224 10.2802 27.7434C9.95914 28.0449 10.1034 28.7423 10.0998 29.1963C10.0962 29.6794 10.0872 30.1679 10.0998 30.6492C9.68856 32.2729 10.0241 34.1181 9.92667 35.7962C9.90322 35.8942 8.49801 36.6152 8.29597 36.8241C8.28154 36.8386 8.14265 37.1238 8.11559 37.1873C8.07771 37.7903 8.20759 37.5233 8.47636 37.2781L8.47816 37.28Z" fill="#164C2C"/>
<path d="M37.8811 7.94925C35.8626 8.27797 36.9161 8.52497 36.9612 9.30046C36.9918 9.81443 36.6058 10.8551 36.7862 11.4816C36.8511 11.7087 37.2624 11.5143 37.34 11.5815C37.6538 11.8521 37.0008 11.9684 36.9197 12.1645C36.7934 12.4678 36.8259 12.733 36.7988 13.0344C37.3977 12.742 38.278 13.1707 38.0615 12.308C37.3454 11.5252 38.0813 11.9484 38.0813 11.4998C38.0813 11.1275 37.9695 10.2521 37.901 9.85438C37.8378 9.49115 37.5222 9.14972 37.5222 8.94813C37.5222 8.74653 37.8306 8.43234 37.8811 7.94925Z" fill="#164C2C"/>
<path d="M26.5168 50.2654C25.1964 50.2418 23.8688 50.2817 22.5483 50.2654C22.5519 50.6431 22.7305 50.9537 22.7287 50.9918C24.4189 50.99 26.1074 51.0626 27.7795 50.8102C27.7741 50.7248 28.0159 50.4506 27.9599 50.2672C27.4801 50.2581 26.9967 50.2744 26.5168 50.2672V50.2654Z" fill="#164C2C"/>
<path d="M36.4381 49.7205C36.3876 49.8149 35.8952 49.9675 36.0774 50.4451C37.2751 50.4742 38.4855 50.4088 39.6851 50.4451C39.9701 50.4542 40.3309 50.4016 40.587 50.4451C40.7349 50.1836 40.4084 49.7804 40.4066 49.7187H36.4381V49.7205Z" fill="#164C2C"/>
<path d="M47.6222 49.3573C47.523 48.718 47.568 47.4067 47.8026 46.8147C47.8585 46.6748 48.0749 46.5368 47.9829 46.2698C43.7799 46.5059 39.2468 46.2226 34.9951 46.2698C27.6877 46.3516 20.2539 46.3697 12.896 46.4478C12.5911 46.4514 12.0932 46.3316 11.9056 46.6331C11.5449 46.6258 11.1841 46.6385 10.8233 46.6331C10.1036 46.624 9.37843 46.6331 8.65869 46.6331C8.17886 46.6331 7.69542 46.6331 7.2156 46.6331C6.34974 46.6331 5.42255 46.8219 4.69019 46.8147C5.09245 47.6646 5.51996 48.7089 5.5831 49.6624C5.62278 50.2708 4.90845 50.0637 5.41173 50.4469H9.20165V47.1779C9.42533 47.098 9.54078 47.3559 9.56062 47.3595C9.7374 47.3868 10.2389 47.3141 10.284 47.3595C10.3507 47.4285 10.4229 48.9668 10.4445 49.2864C10.4644 49.5643 10.4607 50.1527 10.4626 50.4469C10.9532 50.5359 13.5508 50.3253 13.7077 50.4469C14.1226 50.772 13.2387 50.7666 13.3487 50.9882L15.3312 50.8084C15.2139 49.8022 15.3312 48.4183 15.3312 47.3577V46.9945C15.701 47.1034 16.2006 47.1488 16.5939 47.1761C16.6065 47.2324 16.5867 47.2978 16.5939 47.3577C16.6985 48.1768 16.7382 49.2919 16.7743 50.0819L17.678 50.1727L16.7743 50.2635C16.7743 50.3053 16.4748 50.5432 16.5957 50.8084C16.7075 50.9101 17.7015 50.6122 17.8566 50.99C18.9948 50.9555 20.1457 51.0154 21.2839 50.99C21.0007 50.022 21.4806 48.2476 21.2839 47.1761C21.6014 47.2215 22.258 47.0163 22.3663 47.3577C22.543 47.9116 22.5214 49.4245 22.5466 50.0819H23.9897C23.8472 49.5443 23.8671 48.9922 23.8093 48.4474C23.8039 48.3874 23.8202 48.3239 23.8093 48.2658C24.3108 48.362 26.1526 48.0515 26.3348 48.4474C26.3528 48.4873 26.3257 48.5636 26.3348 48.629C26.3979 48.6871 26.461 48.7452 26.5151 48.8106V49.9003C26.6955 49.9003 26.8759 49.9003 27.0563 49.9003C27.1717 49.9003 27.3161 49.9203 27.4171 49.9003C28.494 49.6878 27.7616 47.9988 27.7778 47.1761H29.0424C29.055 47.4757 29.0261 47.7827 29.0424 48.0841C29.0604 48.4401 29.0045 48.8324 29.0424 49.1738C29.1235 49.8967 29.6611 50.0093 29.0424 50.1963V50.4451C29.0947 50.5087 29.1326 50.6068 29.2245 50.6267C29.8325 50.7575 33.5863 50.7303 34.2754 50.6267C35.1268 50.4996 34.6722 50.12 34.7029 49.6606C34.7534 48.8596 34.7913 48.8796 34.6361 48.0841C34.5874 47.8299 34.2772 47.5284 34.5315 47.1634C34.7227 46.8891 35.1448 47.0508 35.3577 46.9945C35.4605 46.9672 35.612 47.0199 35.7185 46.9945C36.2632 46.8928 36.0684 47.2723 36.0792 47.621C36.0955 48.175 35.8177 49.646 36.44 49.5371H40.4085C40.4085 49.5135 40.5979 49.3845 40.5817 49.1175C40.5438 48.4692 40.257 47.7191 40.4067 46.9945C40.616 46.9527 40.9659 47.0526 41.1301 46.9945C41.7776 46.969 41.6207 46.8909 41.6694 47.4412C41.7307 48.1405 41.7686 48.8397 41.8552 49.5334C42.0879 49.5225 42.3441 49.5661 42.5731 49.5352C42.6219 49.528 42.7698 49.3609 43.0097 49.3464C43.8791 49.2901 44.7703 49.4009 45.6397 49.3536C45.6 48.8814 45.5405 47.3486 45.6397 46.9927H46.7238C46.7563 47.3432 46.6769 47.7427 46.7238 48.0823C46.8321 48.8905 46.7491 49.5934 47.6258 49.3536L47.6222 49.3573ZM20.0393 49.8113C19.9797 50.8665 18.8361 50.0274 18.0388 50.2635C17.7303 49.8622 17.7393 48.8142 18.0388 48.4474C19.4656 48.4492 20.1385 48.0406 20.0393 49.8113ZM30.352 49.8186C30.3375 49.7332 30.4458 48.1622 30.4873 48.086C30.4945 48.0714 30.6063 48.0914 30.6676 48.086C30.9941 48.0533 32.872 48.0387 32.9874 48.1114C33.2544 48.2803 33.0794 49.5007 33.3698 49.8149C32.8972 50.0565 30.444 50.3398 30.352 49.8186Z" fill="#164C2C"/>
<path d="M45.8182 49.7205C44.7413 49.7622 43.6463 49.6624 42.5712 49.7205C41.9687 49.7532 41.7505 49.5025 41.8497 50.2653C41.9092 50.2689 41.9705 50.2653 42.0301 50.2653C42.8851 50.2853 44.1099 50.367 44.9162 50.2653C45.0876 50.2435 45.4718 49.9293 45.82 50.0837C45.8128 49.9656 45.8308 49.8385 45.82 49.7205H45.8182Z" fill="#164C2C"/>
<path d="M37.7009 5.22505C37.5692 4.66205 37.9949 4.1844 36.7376 4.53673C36.5266 4.59485 36.458 4.85456 36.4382 4.86182C36.4147 5.19054 36.7574 5.52653 36.7989 5.76989C37.4411 5.73902 37.838 6.02052 37.7009 5.22505Z" fill="#164C2C"/>
<path d="M37.8812 7.76763C37.8379 7.28091 37.7224 6.99941 37.34 6.67795C37.2805 6.67432 37.2174 6.68521 37.1596 6.67795C36.5842 7.92019 36.0593 8.16355 37.8812 7.76763Z" fill="#164C2C"/>
<path d="M13.529 14.3057C13.6101 14.3766 14.5391 14.2567 14.7935 14.3057V13.7609C14.5283 13.7627 13.9998 13.4122 13.5308 13.7609C13.5434 13.9044 13.5001 14.2803 13.5308 14.3057H13.529Z" fill="#164C2C"/>
<path d="M47.622 49.5389C47.0448 49.5552 46.8157 49.3391 46.9023 49.9929C46.9185 50.1146 47.0808 50.0746 47.0808 50.0837H47.9828C48.1487 49.3681 47.6689 49.5952 47.622 49.5389Z" fill="#164C2C"/>
<path d="M36.799 6.49635L37.8813 6.13312C37.8849 6.07501 37.8867 6.00962 37.8813 5.95151L36.799 6.13312C36.8098 6.2203 36.4923 6.18761 36.799 6.49635Z" fill="#164C2C"/>
<path d="M33.8785 15.5952C34.3637 15.3228 35.0871 15.3391 35.1755 14.669C35.2639 13.9988 35.0727 13.1416 35.1755 12.4896C34.8309 12.5532 34.4954 12.6894 34.2014 12.8801C33.7739 13.1561 33.0415 13.7391 32.4697 13.9425C32.4589 14.6454 32.4697 15.4953 32.8305 16.1219C33.341 15.904 33.4654 15.8259 33.8785 15.5952Z" fill="#164C2C"/>
<path d="M31.0284 14.7525C30.9905 14.2349 30.5829 14.5636 30.3051 14.4873C30.1499 14.5218 29.993 14.6308 29.7639 14.669V17.5748C30.1463 17.4676 30.2906 17.2388 30.8462 17.2115C30.9851 16.4379 31.0862 15.5407 31.0284 14.7525Z" fill="#164C2C"/>
<path d="M31.7482 16.8483C32.0891 16.7139 32.2461 16.6649 32.2893 16.3035C32.3777 15.568 32.2262 14.698 32.2893 13.9425C31.9647 14.0587 31.5245 14.2186 31.207 14.3057V17.0299C31.3748 16.9282 31.5786 16.9155 31.7482 16.8483Z" fill="#164C2C"/>
<path d="M28.6833 17.7564C29.0404 17.8454 29.2948 17.6547 29.5852 17.5748V14.8506L28.6833 15.0322C28.6761 15.1521 28.6851 15.2756 28.6833 15.3954C28.6706 16.18 28.6923 16.9718 28.6833 17.7564Z" fill="#164C2C"/>
<path d="M36.0773 11.7632C35.8428 11.8031 35.5072 11.9521 35.3557 12.1264V14.669C36.6202 14.3258 35.8049 12.1736 36.0773 11.7632Z" fill="#164C2C"/>
<path d="M14.9721 30.8326C15.7135 31.2812 19.9165 32.6143 20.3837 32.1039C20.4558 32.0259 20.2339 31.3121 20.564 31.1959C20.564 28.8385 20.5911 26.4703 20.564 24.1129H20.3837C19.9183 23.7225 19.2238 23.7442 18.7602 23.5681C18.201 23.3556 17.4794 23.0469 16.9762 22.7308C16.4693 22.4112 16.0959 21.8101 15.4501 21.5395C15.2823 21.4686 15.2102 21.2834 15.0569 21.5667C14.8097 22.0207 15.0063 25.199 14.9793 26.029C14.9198 27.8614 14.7412 28.9366 14.9721 30.8345V30.8326ZM18.9424 31.5591C19.0001 30.6983 18.5798 30.0844 19.6621 30.286C19.6044 31.1468 20.0247 31.7607 18.9424 31.5591ZM18.9424 24.1129C19.1173 24.162 19.7722 24.26 19.8209 24.3163C19.8642 24.3672 19.8876 25.5241 19.8425 25.5658C19.6765 25.722 19.0235 25.544 18.9406 25.2008C18.9081 25.07 18.9388 24.8194 18.9406 24.656C18.9424 24.4743 18.937 24.2927 18.9406 24.1111L18.9424 24.1129Z" fill="#164C2C"/>
<path d="M17.8582 22.2968C17.9557 22.9579 18.2298 22.5928 18.7602 22.8416C18.9965 22.9524 19.1715 23.0723 19.4817 23.2049V20.8439C18.9532 20.6623 18.7656 20.4625 18.3994 20.299C18.1559 20.2918 17.934 20.2246 17.8582 20.4807C17.7861 20.724 17.8366 21.7647 17.8582 22.1152C17.8618 22.1751 17.8492 22.2387 17.8582 22.2968Z" fill="#164C2C"/>
<path d="M20.564 23.5681C20.5532 22.7599 20.5695 21.9481 20.5713 21.1399C20.528 20.9165 20.2917 21.0636 20.2033 21.0255H19.6621V23.3864C19.9453 23.4918 20.2628 23.5372 20.564 23.5681Z" fill="#164C2C"/>
<path d="M14.6113 17.3932C14.577 17.2062 14.6022 16.8793 14.6113 16.6668C14.3551 16.3217 13.7436 16.5287 13.3486 16.4851C13.3486 16.7267 13.3522 16.9701 13.3486 17.2116C13.3431 17.504 13.3558 17.8146 13.3486 18.1197C13.9402 18.047 14.8223 18.1614 14.6113 17.3932Z" fill="#164C2C"/>
<path d="M20.3838 34.2833C20.3838 33.7929 20.5642 33.1246 20.5642 32.4672H19.4801C19.6154 33.4715 18.9371 34.5866 20.3838 34.2833Z" fill="#164C2C"/>
<path d="M31.5748 42.0146C31.8598 41.8003 32.2332 41.744 32.4695 41.4552C32.1394 41.4861 31.5622 41.1992 31.3872 41.1828C31.1725 41.1628 30.8118 41.1356 30.6242 41.1865C30.4438 41.2355 30.4113 41.4298 30.3049 41.5461V41.0012C29.8954 41.2428 29.5256 40.9776 29.1251 40.9867C28.869 40.9921 28.7067 41.1846 28.6814 41.1828C28.86 42.3361 29.0674 42.7756 30.3049 42.6357C30.4221 42.623 30.5466 42.6466 30.6638 42.6357C30.6566 42.5195 30.6837 42.3851 30.6638 42.2743C30.7757 42.2943 30.9362 42.2434 31.0246 42.2743C31.692 42.5086 31.1635 42.3234 31.5712 42.0164L31.5748 42.0146Z" fill="#164C2C"/>
<path d="M15.8742 21.0255C15.7822 20.388 16.0058 19.4236 15.8742 18.8461C15.7912 18.4829 15.3348 18.3249 15.1526 18.1196C15.1526 18.3012 15.1526 18.4829 15.1526 18.6645C15.1526 19.2493 15.0318 20.3716 15.3835 20.8021C15.4899 20.931 15.7804 20.9419 15.8742 21.0255Z" fill="#164C2C"/>
<path d="M17.6778 22.2968C17.3117 21.5413 17.7103 20.8911 17.6778 20.1174C17.6057 20.0775 17.1529 19.7088 16.9563 19.5726V21.7519C17.1565 21.8754 17.0501 22.1279 17.6778 22.2968Z" fill="#164C2C"/>
<path d="M16.0545 21.2071C16.2962 21.3869 16.3666 21.4232 16.5957 21.5703C16.8031 20.9873 16.298 20.0684 16.7761 19.5726C16.7454 19.5489 16.2908 19.0913 16.2349 19.0277C15.838 19.5798 16.1447 20.5188 16.0545 21.2071Z" fill="#164C2C"/>
<path d="M13.529 16.2109C13.5597 16.427 14.8152 16.4651 14.7935 15.7568C14.7971 15.6969 14.7899 15.6352 14.7935 15.5752C13.9637 15.6624 13.3883 15.1848 13.529 16.2109Z" fill="#164C2C"/>
<path d="M28.494 27.1168C28.5228 28.5389 28.806 30.177 28.862 31.5591C29.1794 31.5918 29.3292 31.6118 29.5835 31.3775C29.7711 31.2031 29.4608 29.6976 29.5835 29.1981C29.6466 29.2054 29.717 29.1818 29.7639 29.1981L29.9461 31.5591C30.1463 31.372 30.7957 31.4084 30.8372 31.3684C30.9021 31.3048 30.8697 29.8483 30.8462 29.5613C30.8354 29.4251 30.8931 29.2726 30.8498 29.1382C30.7849 28.9275 30.4097 29.1309 30.4854 28.8367C31.7373 28.7768 32.9044 28.4517 34.0914 28.1084C34.7895 27.9068 35.428 27.7107 36.0756 27.382H36.256C36.2416 27.066 36.256 26.5556 36.256 26.2015V18.2105C36.256 17.9925 35.9638 17.1589 35.8952 16.8484C35.9782 16.2999 36.0576 16.0111 36.0756 15.3954C34.7137 15.9185 33.469 16.6976 32.1071 17.2116C32.0151 17.2461 31.8401 17.1771 31.7463 17.2116C31.6507 17.2461 31.5371 17.3405 31.3856 17.3932C30.4836 17.7092 29.5835 17.9689 28.6689 18.2304C28.7357 21.2016 28.4326 24.1438 28.4922 27.1168H28.494ZM31.5678 24.8376C31.51 25.6984 31.9303 26.3123 30.848 26.1107C30.9057 25.2498 30.4854 24.636 31.5678 24.8376ZM32.3831 21.5685C32.2568 21.5358 31.9917 20.8457 31.9303 20.6604C31.9105 20.6041 31.952 20.526 31.9303 20.4788L32.8323 20.2972C32.8142 20.7295 33.0289 21.494 32.3849 21.5685H32.3831ZM31.0266 20.4806C31.05 20.5043 31.3387 20.3989 31.391 20.6005C31.5786 21.3288 31.4902 22.0008 30.6658 21.7519C30.572 21.4051 30.5396 20.2191 31.0266 20.4806ZM32.7403 18.1178C33.0505 18.3194 32.5815 18.5465 32.5509 18.7535C32.5238 18.9351 32.6753 19.2021 32.6501 19.391C32.6483 19.4109 32.4029 19.5653 32.4679 19.7542C32.3272 19.8523 32.1811 19.4454 32.1089 19.391L32.7385 18.1178H32.7403ZM30.1247 20.1174C30.0164 20.1483 29.7982 20.546 29.4969 20.4806C29.0784 20.3916 28.9431 18.5628 29.9443 18.8461C30.0543 19.2765 30.2239 19.6289 30.1247 20.1174Z" fill="#164C2C"/>
<path d="M14.6131 15.212C14.5897 15.0649 14.6474 14.7053 14.6131 14.669C14.5752 14.629 13.7382 14.6018 13.5308 14.4874C13.3648 15.5117 13.7689 15.1884 14.6131 15.212Z" fill="#164C2C"/>
<path d="M37.5204 14.3058C37.7405 14.0461 38.1518 13.9807 38.0616 13.5811L36.7989 13.7609C36.7917 13.9425 36.8025 14.1241 36.7989 14.3058C36.7953 14.5364 36.7989 14.7943 36.7989 15.0322C36.7989 15.6225 36.7845 16.2581 36.7989 16.8484C36.8097 17.3042 36.6401 17.938 37.1597 18.1197C37.129 18.1542 37.2228 18.4121 37.1488 18.5192C37.0424 18.6718 36.7935 18.699 36.7989 18.7517C36.8061 18.8425 37.1597 19.2547 37.304 19.3655C37.0947 19.2838 36.4976 19.7324 37.1615 19.9358C36.6095 20.6495 37.0316 20.2173 36.9811 20.6623C36.9504 20.9256 36.8133 21.1581 36.8007 21.5703C37.1308 22.4748 37.0929 21.9953 37.5222 21.9336C37.6359 21.9172 37.7658 21.939 37.883 21.9336C37.984 21.9281 38.1824 21.9099 38.2438 21.9336C38.37 21.9826 38.3827 21.9862 38.4242 22.1152C37.9678 22.1025 36.4724 22.2786 36.9829 22.8398C37.0009 22.8598 37.4068 22.8598 37.5222 22.8398C37.717 22.8071 38.0634 22.4966 38.4242 22.6582C38.4242 22.7181 38.4242 22.7799 38.4242 22.8398C38.1428 22.8761 37.7838 22.789 37.5222 22.8398C36.9342 22.956 37.0262 23.3066 36.8007 23.7479C36.8332 24.1601 37.1254 24.7758 37.1597 25.2934C37.2246 26.2687 37.0045 28.5897 37.1542 29.258C37.1885 29.4142 37.5313 29.3815 37.5222 29.4633C37.5168 29.5087 37.3455 29.5268 37.3418 29.5595C37.3274 29.6776 37.3473 29.8029 37.3418 29.9209L38.6027 29.7411C38.6118 29.861 38.5955 29.9845 38.6027 30.1044L37.34 30.286C37.4032 30.6492 37.4988 31.2104 37.5204 31.5573C37.6052 32.9121 37.4934 34.3632 37.5204 35.7344C37.5276 36.1031 37.515 36.4645 37.5204 36.8241C37.7008 37.0547 38.0598 37.0765 38.242 37.1873C38.3863 37.2745 38.6424 37.358 38.6027 37.5487L37.7026 37.3689C37.7261 37.8484 37.6629 38.3442 37.7026 38.8218C37.7225 39.0779 37.6088 39.2396 37.883 39.3667C37.9299 39.3885 38.0057 39.3485 38.0634 39.3667C38.2131 39.4175 38.4819 39.2359 38.4242 39.5465C37.3743 39.2759 37.414 40.4745 38.2438 40.2766L37.7044 40.638C37.7387 40.7597 37.6196 41.0702 37.7261 41.1574C37.8776 41.2809 38.3033 41.0157 38.2438 41.3626C37.7892 41.2064 37.5511 41.6151 37.5331 42.0128C37.5294 42.0818 38.637 42.2507 37.1633 42.6357C36.8927 42.7066 36.4056 42.7611 36.0809 42.8174C35.6931 42.8846 34.1761 42.9409 34.0949 42.999C34.0624 43.0226 34.1165 43.2841 34.0949 43.3622C35.1105 43.0589 36.9143 43.9942 37.7621 43.6964C38.1428 43.562 38.4909 42.6212 38.7128 42.2925C38.8896 42.031 39.3892 41.9983 39.3243 41.5461L39.1403 33.0974L39.8655 32.4654C39.9214 32.4654 40.3615 31.9823 40.5581 32.5852C40.7421 33.8347 40.6321 41.2464 41.13 41.7277C41.5863 42.169 41.4799 40.9831 41.4871 40.8196L41.1264 32.4672C41.7469 32.3818 42.1329 32.8812 42.5694 33.1918C42.9392 33.4551 43.1882 33.8601 43.6518 33.9183C43.6427 33.7003 43.4804 33.4243 43.4714 33.1918C43.2693 32.5017 41.231 32.182 41.1408 32.0876C41.0614 32.0059 40.7692 30.0572 40.7602 29.8211C40.6952 28.1992 40.5599 26.4812 40.5852 24.8376L40.4066 17.9362C41.6513 17.9925 42.2808 19.1912 43.1106 19.934V19.7524C43.1106 19.6307 43.1106 19.5108 43.1106 19.3891C43.1106 19.2675 43.1106 19.1476 43.1106 19.0259C42.8418 18.4302 40.6952 17.6656 40.6141 17.5421C40.5545 17.4531 40.4571 16.4052 40.4048 16.1201C40.2677 15.3737 40.0819 14.4819 40.0368 13.6756C39.8907 11.1094 40.2569 8.50138 39.8636 5.9497C39.575 5.8934 39.8492 5.7354 39.3225 5.9497L40.0531 17.2697L38.4206 17.9362C38.3755 17.6039 38.5739 17.05 38.2402 16.8465C38.2402 16.7249 38.2402 16.605 38.2402 16.4833C38.5252 16.3635 38.5252 15.6951 38.2402 15.5752C38.2402 15.5153 38.2402 15.4536 38.2402 15.3936C38.5107 15.2683 38.4151 14.9069 38.4206 14.6672C38.435 14.0515 38.5595 13.1398 38.2402 12.6694C38.2402 13.3142 38.0652 14.0751 38.0598 14.4856L37.5186 14.3039L37.5204 14.3058ZM38.7831 30.4694C38.7885 30.5893 38.7795 30.7128 38.7831 30.8326C37.9678 30.958 37.993 30.3368 38.7831 30.4694ZM39.1439 40.2766L38.4206 40.1858L39.1439 40.095C39.1457 40.1549 39.1439 40.2166 39.1439 40.2766ZM39.8636 17.7564C39.8474 19.1567 40.0098 20.5333 40.0458 21.9336C40.0585 22.4166 40.0386 22.9034 40.0458 23.3865L40.5906 31.9986C40.5599 32.1929 40.0657 32.1058 39.8655 32.1039C39.6851 32.1039 39.5047 32.1039 39.3243 32.1039C38.6713 30.404 39.0609 28.5352 38.9707 26.7391C38.8372 24.1075 38.7272 21.4777 38.6027 18.8461C38.5937 18.6663 38.6172 18.4811 38.6027 18.3013L39.8636 17.7564ZM38.242 21.5703L38.1013 21.4595L38.242 20.8439C38.5252 21.3778 38.3827 21.1381 38.242 21.5703Z" fill="#164C2C"/>
<path d="M20.2034 41.5479C19.9959 41.8748 20.2611 43.295 20.1998 43.3622C20.0843 43.4893 19.5756 43.0771 19.6622 43.7272C19.958 43.769 20.2376 43.9089 20.5641 43.9089C23.039 43.9052 25.5518 43.6818 28.0592 43.7182C29.0405 43.7327 30.1878 44.0905 31.2069 43.9089C31.8599 43.7926 32.4552 42.999 32.8304 42.8192L32.6482 41.7295L31.2069 42.7284L31.9267 42.9972C31.5154 42.9572 28.7952 42.9336 28.6815 42.8174C28.631 42.7647 28.6238 41.626 28.4993 41.3663C28.4073 41.2827 27.4333 41.962 27.2384 42.0927C27.1663 41.5969 27.9546 41.4462 28.3208 41.1847C27.6587 41.1847 26.8398 41.1738 26.1561 41.1847L27.0581 42.2743C26.4502 42.6775 26.5548 41.7767 26.0641 41.3681C25.6871 41.1901 25.4761 42.8283 24.8952 42.367C25.0576 42.2471 25.1369 42.0637 25.2542 41.9129C25.4129 41.7095 25.7503 41.5642 25.7953 41.1865C24.7888 41.201 23.6289 41.1719 22.5484 41.1865C22.6693 41.6351 22.9362 42.2598 23.4503 42.2762C22.5502 42.841 23.0517 41.6659 22.1876 41.5497V41.1865C21.7673 41.1901 21.3452 41.1919 20.9249 41.1865L20.3838 41.5497C20.3242 41.5479 20.2629 41.5497 20.2034 41.5497V41.5479ZM27.0581 42.8192V43.0008H23.3601C23.1184 43.0008 22.4402 43.3767 22.009 43.1806V42.8192H27.0581Z" fill="#164C2C"/>
<path d="M32.6499 28.6514V31.0142C32.9277 30.9761 33.3029 31.0705 33.5536 31.0142C33.6979 30.9815 33.9216 30.8036 33.9144 30.651C33.9144 30.6274 33.7286 30.4567 33.7286 30.2115C33.725 29.6921 33.7394 29.1708 33.7358 28.6532H32.6517L32.6499 28.6514Z" fill="#164C2C"/>
<path d="M35.5361 29.5614C35.5487 29.7412 35.5253 29.9264 35.5361 30.1062C36.972 30.0735 36.4958 28.9893 36.4254 27.8505C36.4164 27.7089 36.2595 27.5963 36.2577 27.5636C35.2276 27.6072 35.4748 28.6787 35.5361 29.5614Z" fill="#164C2C"/>
<path d="M35.1755 41.8185C35.024 41.6732 34.4611 41.6895 34.2735 41.7277C34.2483 41.7331 34.1779 41.8693 34.0932 41.9093C33.9939 42.1599 33.7865 42.3361 33.552 42.4541V42.6357C34.0571 42.3869 34.7534 42.2925 35.1755 41.8185Z" fill="#164C2C"/>
<path d="M34.0931 41.9111C34.1256 41.8294 34.0714 41.6587 34.0931 41.5479C33.6511 41.4989 33.4166 41.4444 33.0108 41.3663C32.7312 41.7477 33.0559 42.1981 33.0126 42.6376C33.1659 42.5286 33.404 42.5304 33.5519 42.456C33.5123 41.9583 33.8189 42.0401 34.0931 41.9111Z" fill="#164C2C"/>
<path d="M35.3557 41.3662H35.5361C35.5127 41.6514 35.8067 41.8729 35.3557 42.2725C37.4013 42.6975 37.1903 42.4686 36.9792 40.8214C36.8692 39.4103 37.2119 37.8157 36.7988 36.4627C36.7718 35.3548 36.9052 34.0799 36.7988 33.012L36.6166 30.1062C36.3406 30.0408 36.5156 30.3441 36.3046 30.4603C36.1242 30.5584 35.5902 30.7509 35.3557 30.8326C34.6883 31.0633 34.1526 31.0615 33.5519 31.1959C32.7257 31.3811 31.9518 31.6753 31.0265 31.7407C30.3139 31.7916 29.578 31.7044 28.8618 31.7407C28.9664 34.2288 28.8726 36.7678 29.0296 39.2686L29.5834 39.7317C29.7529 39.7571 29.9568 39.7045 30.1245 39.7317C30.451 39.7862 30.8082 39.7317 31.2141 39.8134C32.2567 40.0223 34.1922 41.2246 34.995 41.1846L35.3557 41.3662ZM31.2068 38.0028C31.1581 37.8811 31.7011 38.07 31.5676 37.3689C31.7787 37.4071 32.1142 37.3144 32.2892 37.3689C32.787 39.0234 32.2134 39.4629 31.2068 38.0028ZM33.5176 36.9258C33.5302 37.1292 33.3769 37.2854 33.3715 37.3689H32.4677V35.7344C33.4905 35.4874 33.4563 35.9959 33.5158 36.9258H33.5176Z" fill="#164C2C"/>
<path d="M12.9897 30.286L14.2506 29.9227C14.2687 28.982 14.4166 27.9867 14.431 27.0169H12.9879C12.9951 27.3184 12.9861 27.6217 12.9879 27.925C12.9951 28.7095 12.9807 29.5014 12.9879 30.286H12.9897Z" fill="#164C2C"/>
<path d="M13.1683 23.2048C13.5688 23.1576 14.0216 23.2375 14.431 23.2048C14.4365 23.1304 14.6565 22.9088 14.6349 22.5692C14.6114 22.2114 14.0522 22.4057 14.4292 21.5703C14.0612 21.6066 13.6229 21.514 13.2712 21.5667C13.0403 21.6012 13.2243 22.9052 13.1665 23.2048H13.1683Z" fill="#164C2C"/>
<path d="M17.3188 32.1021V33.7366C17.5696 33.8202 17.9322 34.1852 18.2208 33.9183C18.1703 33.0374 18.5924 31.9005 17.3188 32.1021Z" fill="#164C2C"/>
<path d="M14.431 31.3774C14.4346 31.0742 14.4256 30.7727 14.431 30.4694C13.3163 30.4785 12.8563 30.1279 12.804 31.4664C12.813 31.688 14.1731 31.4991 14.431 31.3774Z" fill="#164C2C"/>
<path d="M18.4013 32.2838C18.3977 32.8268 18.4013 33.3753 18.4013 33.9201V34.1017L19.3068 33.9982C19.2581 33.1936 19.4691 32.0041 18.4031 32.2838H18.4013Z" fill="#164C2C"/>
<path d="M16.417 31.7389L16.2366 33.1936C16.5144 33.3425 16.536 33.526 17.1385 33.7385C16.987 32.8467 17.6508 31.4211 16.417 31.7389Z" fill="#164C2C"/>
<path d="M15.3347 31.1959V32.8304C15.8272 33.1736 15.7857 33.0665 16.0545 33.1936C15.9156 32.1148 16.7345 31.4719 15.3347 31.1959Z" fill="#164C2C"/>
<path d="M13.1682 25.7456V26.7318L14.4327 26.8353C14.4381 26.4721 14.4273 26.1088 14.4327 25.7456H13.1682Z" fill="#164C2C"/>
<path d="M14.2524 33.7385C14.2614 33.4969 14.2397 33.2535 14.2524 33.012C14.2542 32.9521 14.2433 32.8885 14.2524 32.8304H12.8075L12.8057 33.6331L14.2524 33.7385Z" fill="#164C2C"/>
<path d="M14.6114 20.6622C14.6403 20.2899 14.7197 19.618 14.4311 19.3909C14.4599 19.3256 14.5736 19.2729 14.6114 19.2093V18.2994H13.3487C13.3415 18.541 13.3596 18.7843 13.3487 19.0259C13.3235 19.5707 13.1665 20.0375 13.1684 20.6604C13.1684 20.902 13.1647 21.1453 13.1684 21.3869C14.0468 21.2779 14.5429 21.5739 14.6114 20.6604V20.6622Z" fill="#164C2C"/>
<path d="M14.4309 24.1129C14.4327 23.9912 14.4273 23.8714 14.4309 23.7497C12.6632 22.8688 12.6181 24.9847 14.4309 24.1129Z" fill="#164C2C"/>
<path d="M15.1525 32.8304C15.2805 32.1657 15.0569 31.5863 14.9721 31.0142C14.6474 31.9187 14.4778 32.2347 15.1525 32.8304Z" fill="#164C2C"/>
<path d="M20.0229 41.5479C19.9976 41.5479 19.8894 41.3717 19.7433 41.3717C19.3248 41.3735 18.3687 41.4335 18.3994 41.9111C18.4553 42.7937 18.5167 43.1987 19.4817 42.999L19.3031 42.4559L19.8425 42.6357C19.8677 42.3996 19.8136 42.1417 19.8425 41.9093C19.8569 41.8076 19.9868 41.6623 20.0229 41.5461V41.5479Z" fill="#164C2C"/>
<path d="M14.0702 38.8236C13.2423 38.9108 12.6614 38.435 12.8057 39.4575C12.8346 39.6609 13.8141 39.501 14.0702 39.5501C14.0702 39.3085 14.0702 39.0652 14.0702 38.8236Z" fill="#164C2C"/>
<path d="M14.0701 42.8192V42.2743C13.933 42.1327 13.8519 41.8348 13.7093 41.7295C13.5019 41.5769 13.1898 41.5333 12.9878 41.7295C12.6739 42.0328 12.8255 42.4087 12.8056 42.8192C13.2151 42.8537 13.6679 42.7701 14.0701 42.8192Z" fill="#164C2C"/>
<path d="M13.8917 40.8214H12.8076V41.3644H13.8917V40.8214Z" fill="#164C2C"/>
<path d="M13.8917 39.9133H12.8076V40.4564H13.8917V39.9133Z" fill="#164C2C"/>
<path d="M31.2086 31.3756C31.4233 31.3212 32.4154 31.2303 32.4587 31.1849C32.6824 30.9525 32.1574 29.2798 32.2891 28.833C30.561 28.7259 31.3709 30.1316 31.2086 31.3756Z" fill="#164C2C"/>
<path d="M35.0834 28.1048C34.8994 28.2083 33.9488 28.4244 33.9109 28.4735C33.8874 28.5025 34.0823 28.9311 34.0931 29.1981C34.0949 29.258 34.0895 29.3198 34.0931 29.3797C34.1165 29.8011 34.0768 30.2297 34.0931 30.651C34.8363 30.5112 35.3522 30.5457 35.3558 29.743C35.3558 29.683 35.3612 29.6213 35.3558 29.5613C35.3414 29.3906 35.1844 29.2526 35.1754 29.1981C35.1393 28.9675 35.2764 28.1048 35.0834 28.1066V28.1048Z" fill="#164C2C"/>
<path d="M12.6272 35.373V35.7362C12.9609 35.7707 13.5562 36.0922 14.0703 35.9178C14.0775 35.8579 14.0613 35.7943 14.0703 35.7362V35.0098L12.6272 35.1914V35.373Z" fill="#164C2C"/>
<path d="M12.6272 34.8281H14.2525C14.5591 33.5205 13.5291 33.8147 12.6272 34.1017V34.8281Z" fill="#164C2C"/>
<path d="M12.8076 31.7389V32.6488C12.8653 32.7051 14.2038 32.5217 14.2525 32.4672C14.276 32.4399 14.2778 31.768 14.2525 31.7407C14.1948 31.679 13.0728 31.7825 12.8076 31.7407V31.7389Z" fill="#164C2C"/>
<path d="M17.3171 43.1824C16.8426 43.1551 16.3502 43.1769 15.874 43.1824C15.1867 43.1914 14.8079 43.2913 14.2505 43.364C14.8873 44.0178 16.7001 43.749 17.3171 43.1824Z" fill="#164C2C"/>
<path d="M17.678 38.4586H17.1387V39.3685H17.678V38.4586Z" fill="#164C2C"/>
<path d="M17.8582 34.6447H17.3188V35.5546H17.8582V34.6447Z" fill="#164C2C"/>
<path d="M38.2419 12.308C38.2419 12.4297 38.2419 12.5495 38.2419 12.6712C38.5612 13.1416 38.4368 14.0533 38.4223 14.669C38.4169 14.9087 38.5125 15.2701 38.2419 15.3954C38.2419 15.4554 38.2419 15.5171 38.2419 15.577C38.527 15.6969 38.527 16.3652 38.2419 16.4851C38.2419 16.6068 38.2419 16.7267 38.2419 16.8483C38.5757 17.0517 38.3772 17.6057 38.4223 17.938L39.3189 17.573C39.3189 17.573 39.3225 17.573 39.3243 17.573V17.5693L40.0566 17.2697L39.3261 5.94968C39.8528 5.73537 39.5786 5.89338 39.8672 5.94968C40.2587 8.50135 39.8943 11.1093 40.0404 13.6755C40.0873 14.4819 40.2713 15.3736 40.4084 16.1201C40.4607 16.4052 40.5599 17.4531 40.6176 17.5421C40.6988 17.6656 42.8436 18.4302 43.1142 19.0259C43.1196 14.7107 43.4154 7.19192 40.6645 3.78484C39.9484 2.89856 39.768 2.62251 38.6911 3.22183C37.3075 3.99006 38.1932 5.20688 38.2528 6.57806C38.3339 8.45232 38.2383 10.421 38.2456 12.3062L38.2419 12.308Z" fill="#66D575"/>
<path d="M9.38008 25.3842C9.57489 25.2026 10.2495 24.843 10.2856 24.7104C10.3542 21.9662 10.2622 18.926 10.6482 16.2163C10.6915 15.9094 10.6825 14.8778 11.1839 15.0322L10.825 24.6559L12.9878 25.021C13.0022 24.843 12.9337 24.7177 13.1682 24.6578C13.1754 24.5125 13.0113 24.3781 12.9878 24.2945C12.9373 24.1165 12.8074 23.5336 12.8074 23.3865C12.9427 23.401 13.1141 23.2121 13.1682 23.2048C13.2259 22.907 13.0401 21.6012 13.2728 21.5667C13.6246 21.514 14.0629 21.6085 14.4309 21.5703C14.0539 22.4057 14.6131 22.2114 14.6365 22.5692C14.6582 22.9088 14.4381 23.1304 14.4327 23.2048C14.4237 23.3174 14.4381 23.5663 14.4327 23.7497C14.4291 23.8714 14.4345 23.9912 14.4327 24.1129C14.4291 24.2854 14.4345 24.4743 14.4327 24.6578C14.4291 24.961 14.4381 25.2625 14.4327 25.5658C14.4327 25.6258 14.4327 25.6875 14.4327 25.7474C14.4273 26.1107 14.4381 26.4739 14.4327 26.8371C14.4327 26.8971 14.4327 26.9588 14.4327 27.0187C14.4183 27.9886 14.2704 28.9838 14.2523 29.9246C14.2523 29.9536 14.4381 30.157 14.4327 30.4694C14.4273 30.7727 14.4363 31.0742 14.4327 31.3775C14.4273 31.906 14.2884 32.1475 14.2523 32.4672C14.2397 32.5852 14.2704 32.716 14.2523 32.8304C14.2433 32.8885 14.2541 32.9521 14.2523 33.012C14.7195 33.4388 14.1459 34.4013 14.6131 34.8281C14.6167 34.6465 14.6023 34.4631 14.6131 34.2833C14.6365 33.931 14.4219 33.5314 14.8837 33.5532C15.6034 33.5877 16.5811 34.1326 17.3189 34.2833C17.6544 34.3523 18.0476 34.4013 18.4012 34.4649V33.9201H18.2208C17.9322 34.187 17.5714 33.822 17.3189 33.7385C17.2648 33.7203 17.1926 33.7566 17.1385 33.7385C16.536 33.526 16.5144 33.3425 16.2366 33.1936C16.1897 33.1682 16.1067 33.2172 16.0562 33.1936C15.7874 33.0665 15.8289 33.1736 15.3346 32.8304C15.2931 32.8013 15.1885 32.8594 15.1542 32.8304C14.4796 32.2347 14.6492 31.9187 14.9739 31.0142C14.9648 30.9543 14.9811 30.8926 14.9739 30.8326C14.743 28.9348 14.9215 27.8596 14.9811 26.0271C15.0081 25.1971 14.8115 22.0189 15.0586 21.5649C15.2138 21.2815 15.2841 21.4686 15.4519 21.5376C16.0977 21.8082 16.4711 22.4112 16.978 22.729C17.4812 23.0468 18.2028 23.3538 18.762 23.5663C19.2256 23.7424 19.9201 23.7206 20.3855 24.1111H20.5658C20.5929 26.4684 20.5658 28.8367 20.5658 31.194C20.5658 31.6172 20.5658 32.0422 20.5658 32.4653C20.5658 33.1228 20.3855 33.7911 20.3855 34.2815C20.3873 35.7035 20.4053 38.3696 20.5658 39.7299C20.5767 39.8262 20.8184 40.0477 20.7462 40.0913C19.8912 40.0078 19.1606 40.509 18.4012 40.8196C17.8817 41.0321 16.61 41.3336 16.5973 41.9093C16.9347 41.8312 17.7085 41.5842 17.9683 41.6187C18.1541 41.6423 18.1992 41.902 18.2208 41.9093C18.2749 41.9274 18.3489 41.8893 18.4012 41.9093C18.3723 41.4334 19.3266 41.3735 19.7451 41.3699C19.8912 41.3699 19.9994 41.546 20.0247 41.546C20.0842 41.546 20.1455 41.546 20.2051 41.546C20.2646 41.546 20.3259 41.5442 20.3855 41.546L20.9266 41.1828C21.3469 41.1883 21.769 41.1864 22.1893 41.1828C22.3102 41.1828 22.4292 41.1828 22.5501 41.1828C23.6306 41.1683 24.7905 41.1973 25.797 41.1828C25.9179 41.181 26.037 41.1846 26.1578 41.1828C26.8415 41.1719 27.6604 41.1828 28.3225 41.1828C28.4433 41.1828 28.5642 41.1792 28.6832 41.1828C28.7067 41.1828 28.8708 40.9921 29.127 40.9867C29.5292 40.9776 29.8972 41.2427 30.3049 41.0012V41.546C30.4131 41.4298 30.4456 41.2355 30.626 41.1864C30.8136 41.1356 31.1744 41.1628 31.389 41.1828C31.6289 41.1883 31.8707 41.1737 32.1106 41.1828C32.5399 41.1992 32.6932 41.3027 33.0125 41.3644C33.4184 41.4425 33.6529 41.497 34.0948 41.546C34.1778 41.5551 34.259 41.6405 34.2752 41.7277C34.461 41.6877 35.0256 41.6732 35.1771 41.8185C34.755 42.2925 34.0606 42.3869 33.5537 42.6357C33.2073 42.8064 32.9223 42.7738 32.8321 42.8173C32.4569 42.9971 31.8616 43.7908 31.2086 43.907V44.4519C31.757 44.6335 32.4768 44.2939 32.8321 44.2703V44.0886C34.9625 44.1431 37.1037 44.0487 39.2358 44.0886L39.1456 44.2703V44.4519C39.5407 45.1057 40.2622 44.7352 40.9495 44.8151C41.0866 44.3919 40.6104 42.8301 41.3987 42.8155C41.6909 43.2986 41.1894 44.8024 41.7865 44.9767C43.3432 44.8296 44.9018 45.0476 46.4711 45.0094C46.8012 45.0022 47.0357 44.8169 47.0808 44.8151H44.0143C44.081 44.599 44.2091 44.4301 44.2019 44.1849C44.0918 40.7778 43.787 37.3362 43.6535 33.9183C43.1899 33.8601 42.941 33.4551 42.5712 33.1918C42.1346 32.8812 41.7504 32.38 41.1281 32.4672L41.4889 40.8196C41.4798 40.983 41.5881 42.1672 41.1317 41.7277C40.6338 41.2482 40.7439 33.8347 40.5599 32.5852C40.3633 31.9822 39.9231 32.4635 39.8672 32.4653L39.142 33.0974L39.326 41.546C39.391 41.9983 38.8895 42.031 38.7145 42.2925C38.4926 42.6212 38.1445 43.562 37.7639 43.6964C36.9161 43.9942 35.1122 43.0589 34.0966 43.3622C34.1165 43.2841 34.0624 43.0226 34.0966 42.999C34.1778 42.9408 35.6948 42.8845 36.0827 42.8173C36.4074 42.761 36.8944 42.7066 37.165 42.6357C38.6406 42.2507 37.533 42.0818 37.5348 42.0128C37.5528 41.6151 37.7909 41.2064 38.2455 41.3626C38.3032 41.0157 37.8775 41.2809 37.7278 41.1574C37.6214 41.0702 37.7404 40.7597 37.7062 40.638C37.3742 39.4466 37.5456 38.0881 37.5258 36.8241C37.5204 36.4645 37.533 36.1031 37.5258 35.7344C37.4987 34.3632 37.6106 32.9121 37.5258 31.5573C37.5041 31.2104 37.4085 30.6492 37.3454 30.286C37.3273 30.1825 36.88 29.7593 37.3454 29.5595C37.349 29.5268 37.5204 29.5087 37.5258 29.4633C37.5348 29.3797 37.1939 29.4124 37.1578 29.258C37.0081 28.5897 37.2263 26.2687 37.1632 25.2934C37.1289 24.774 36.8367 24.1583 36.8042 23.7479C36.7519 23.0759 36.7844 22.2532 36.8042 21.5685C36.8169 21.1562 36.9539 20.9238 36.9846 20.6604C37.0351 20.2155 36.613 20.6477 37.165 19.934C36.5012 19.7306 37.0983 19.282 37.3075 19.3637C37.1632 19.2529 36.8096 18.8407 36.8024 18.7498C36.7988 18.6972 37.0459 18.6699 37.1524 18.5174C37.2263 18.4102 37.1325 18.1523 37.1632 18.1178C36.6437 17.9362 36.8132 17.3024 36.8024 16.8465C36.788 16.2563 36.8024 15.6206 36.8024 15.0304C36.8024 14.7925 36.7988 14.5346 36.8024 14.3039C36.806 14.1223 36.7952 13.9407 36.8024 13.7591C36.8114 13.5194 36.7808 13.2705 36.8024 13.0326C36.8313 12.7312 36.797 12.4678 36.9233 12.1627C37.0045 11.9666 37.6575 11.8503 37.3436 11.5797C37.266 11.5143 36.8547 11.7069 36.7898 11.4798C36.6094 10.8514 36.9954 9.81262 36.9648 9.29865C36.9179 8.52316 35.8644 8.27616 37.8847 7.94744C37.8902 7.89114 37.8902 7.82213 37.8847 7.76583C36.0628 8.16175 36.5878 7.91838 37.1632 6.67614C36.9125 6.64164 36.963 6.65617 36.8024 6.49453C36.4958 6.18578 36.8132 6.21848 36.8024 6.1313C36.788 6.01507 36.8223 5.88067 36.8024 5.76807C36.7609 5.52471 36.4182 5.18872 36.4417 4.86C36.2829 4.9163 35.7778 4.79825 35.7183 4.86C35.4098 5.17601 36.3442 9.73634 35.6678 10.8024C35.6137 10.8878 34.2157 11.7813 33.9776 11.9193C32.4028 12.831 30.0001 13.7318 28.1818 14.2531C27.8029 14.362 26.055 14.5873 25.9774 14.669C25.6329 15.0395 26.3418 15.261 26.3418 15.3028C26.3418 15.4826 26.0153 15.2265 25.963 15.6533C25.9919 23.2557 25.9792 30.8599 25.9792 38.4586V39.3667C25.8584 39.3649 25.7393 39.3685 25.6185 39.3667C25.5517 39.3667 25.5012 39.3667 25.4381 39.3667C24.4784 39.3649 23.5116 39.3667 22.5501 39.3667L22.7467 21.6448C22.1154 21.0545 22.6259 21.405 22.7305 20.6604C21.0872 21.0382 15.8325 18.9424 15.5204 17.2951C15.4086 16.7049 15.6485 13.7064 15.515 13.5757C15.3382 13.4013 14.8314 13.7573 14.7935 13.7573V14.3021C14.7935 14.7235 14.8151 15.1539 14.7935 15.5734C14.7899 15.6333 14.7971 15.6951 14.7935 15.755C14.7754 16.1582 14.6185 16.5432 14.6131 16.6631C14.6041 16.8756 14.5788 17.2025 14.6131 17.3896C14.669 17.6947 14.9775 17.9162 15.1542 18.116C15.3364 18.3212 15.7928 18.4792 15.8758 18.8425C16.4314 18.4375 16.1644 18.9424 16.2366 19.0241C16.2925 19.0876 16.7471 19.5453 16.7777 19.5689C16.8156 19.598 16.9166 19.5399 16.9581 19.5689C17.1547 19.7051 17.6075 20.0738 17.6797 20.1138C17.7121 20.1319 18.0783 20.1501 18.4012 20.2954C18.7674 20.4588 18.955 20.6586 19.4835 20.8402C19.6783 20.9074 19.8497 20.8711 20.2051 21.0218C20.2935 21.06 20.5316 20.9129 20.5731 21.1363C20.5694 21.9444 20.555 22.7581 20.5658 23.5644C20.2646 23.5336 19.9471 23.4882 19.6639 23.3828C19.6026 23.3592 19.5449 23.2266 19.4835 23.2012C19.1733 23.0686 18.9983 22.9488 18.762 22.838C18.2316 22.5892 17.9575 22.9542 17.86 22.2931C17.8041 22.2768 17.7356 22.3077 17.6797 22.2931C17.0519 22.1242 17.1583 21.8718 16.9581 21.7483C16.8661 21.692 16.7344 21.6557 16.5973 21.5667C16.3682 21.4196 16.2979 21.3832 16.0562 21.2035C15.9876 21.1526 15.9389 21.0781 15.8758 21.0218C15.782 20.9383 15.4916 20.9274 15.3851 20.7985C15.0334 20.368 15.1524 19.2457 15.1542 18.6609C14.7646 18.5519 14.7899 18.9133 14.6131 19.2057C14.5752 19.2693 14.4616 19.3219 14.4327 19.3873C14.7213 19.6143 14.6419 20.2863 14.6131 20.6586C14.5445 21.5721 14.0485 21.2779 13.17 21.3851C13.1664 21.1435 13.17 20.9002 13.17 20.6586C13.1682 20.0357 13.3251 19.5689 13.3504 19.0241C13.3612 18.7825 13.3432 18.5392 13.3504 18.2976C13.3504 18.2377 13.3504 18.1759 13.3504 18.116C13.3576 17.8109 13.345 17.5003 13.3504 17.2079C13.354 16.9664 13.3504 16.723 13.3504 16.4815C13.3486 15.3337 13.3504 14.1786 13.3504 13.0308C13.3125 12.9418 13.4586 12.7039 13.2367 12.6603C12.8435 12.5641 10.8268 12.7602 10.4642 12.94C9.89598 13.2197 9.46666 14.8361 9.10589 15.3864C8.47454 19.0332 8.4583 22.769 8.29956 26.4703C8.36991 26.3304 9.18706 25.5622 9.38188 25.3806L9.38008 25.3842ZM29.0314 39.2668C28.8744 36.766 28.9682 34.227 28.8636 31.7389C28.8618 31.679 28.8654 31.6172 28.8636 31.5573C28.8077 30.177 28.5227 28.537 28.4956 27.115C28.4361 24.142 28.7392 21.1998 28.6724 18.2286C29.587 17.9671 30.4871 17.7056 31.389 17.3914C31.3024 17.1662 31.0445 17.2007 30.8479 17.2098C30.2923 17.237 30.148 17.4658 29.7655 17.573C29.7096 17.5893 29.6411 17.5566 29.5852 17.573C29.2965 17.6529 29.0422 17.8436 28.6832 17.7546C28.6904 16.97 28.6688 16.1782 28.6832 15.3936C28.685 15.2738 28.676 15.1503 28.6832 15.0304C28.6904 14.9105 28.6724 14.787 28.6832 14.6672C29.0278 14.6254 29.439 14.7198 29.7674 14.6672C29.9964 14.629 30.1534 14.5201 30.3085 14.4855C30.6061 14.4183 31.0066 14.3602 31.2104 14.3039C31.5279 14.2168 31.9681 14.0569 32.2928 13.9407C32.3469 13.9207 32.419 13.9589 32.4731 13.9407C33.045 13.7373 33.7791 13.1543 34.2049 12.8783C34.4989 12.6876 34.8344 12.5514 35.1789 12.4878C35.2168 12.2535 35.224 12.2808 35.3593 12.1246C35.5109 11.9502 35.8464 11.8013 36.0809 11.7613C35.8085 12.1718 36.6238 14.3239 35.3593 14.6672H35.1789C35.0906 15.3373 34.3672 15.3228 33.882 15.5934C33.4707 15.824 33.3462 15.9021 32.8339 16.1201C32.7636 16.1491 32.6788 16.5941 32.2928 16.3017C32.2495 16.6631 32.0925 16.7121 31.7516 16.8465V17.2098C31.8454 17.1753 32.0204 17.2443 32.1124 17.2098C33.4743 16.6958 34.719 15.9167 36.0809 15.3936C36.0628 16.0093 35.9835 16.2981 35.9005 16.8465C35.969 17.1571 36.2613 17.9907 36.2613 18.2086V26.1997C36.2613 26.5538 36.2468 27.0641 36.2613 27.3801C36.2649 27.4401 36.2577 27.5018 36.2613 27.5618C36.2631 27.5945 36.4218 27.7071 36.429 27.8487C36.4994 28.9856 36.9756 30.0699 35.5397 30.1044C35.5289 29.9246 35.5505 29.7411 35.5397 29.5595H35.3593C35.3647 29.6194 35.3593 29.6812 35.3593 29.7411C35.3557 30.5439 34.8398 30.5094 34.0966 30.6492H33.9162C33.9235 30.8018 33.6998 30.9797 33.5555 31.0124V31.194C34.1562 31.0596 34.6919 31.0615 35.3593 30.8308C35.5938 30.7509 36.1278 30.5566 36.3082 30.4585C36.521 30.3441 36.3442 30.0408 36.6202 30.1044L36.8024 33.0102C36.9089 34.0781 36.7754 35.353 36.8024 36.4608C37.2155 37.8139 36.8728 39.4084 36.9828 40.8196C37.1939 42.4668 37.4049 42.6957 35.3593 42.2707C35.8103 41.8711 35.5163 41.6496 35.5397 41.3644H35.3593L34.9986 41.1828C34.194 41.2228 32.2603 40.0205 31.2177 39.8116C30.8118 39.7299 30.4546 39.7844 30.1281 39.7299C29.9604 39.7027 29.7565 39.7553 29.587 39.7299L29.0332 39.2668H29.0314Z" fill="#66D575"/>
<path d="M43.1124 20.4806V19.9358C42.2827 19.193 41.6531 17.9962 40.4084 17.938L40.587 24.8394C40.5618 26.4848 40.6953 28.2029 40.762 29.8229C40.771 30.059 41.0632 32.0077 41.1426 32.0894C41.2346 32.1839 43.2712 32.5017 43.4732 33.1936C43.3848 30.76 43.3596 28.1484 43.2856 25.6639C43.2405 24.1529 43.4876 22.1533 43.2982 20.7404C43.273 20.5569 43.2766 20.5515 43.1124 20.4806Z" fill="#66D575"/>
<path d="M7.93691 44.9985C8.05597 45.1202 9.31146 44.7733 9.56039 45.1783C9.67945 45.1692 9.80211 45.1874 9.92116 45.1783C9.67764 44.5445 9.57663 43.5892 9.92116 43.0008C10.4677 42.8991 10.2675 43.2786 10.2819 43.6273C10.3018 44.1431 10.2675 44.6662 10.2819 45.1801C11.1821 45.1838 12.0894 45.171 12.9895 45.1801V44.9985L12.8092 44.6353C12.6558 44.6262 12.4971 44.628 12.4484 44.4537C12.7135 44.312 12.6179 43.1624 12.6288 42.8191C12.6829 41.1937 12.6288 39.5428 12.6288 37.9156V36.4627L10.4858 36.1212C10.1863 36.3119 10.2837 38.4985 10.2837 39.0052H10.4641C10.3884 39.8189 10.5219 40.7233 10.4605 41.5497C10.3721 41.5351 10.2982 41.3644 10.2837 41.3662C10.134 41.3808 10.143 41.9292 9.74439 41.7276C9.73717 40.9431 9.7516 40.153 9.74439 39.3685L10.1034 36.2829C9.34754 36.2011 8.9579 36.8459 8.48168 37.2817C8.2129 37.5269 8.08303 37.7921 8.12091 37.1909C7.68798 38.1825 8.06318 39.7045 7.94052 40.8232C7.91346 41.3753 7.79441 44.8532 7.94052 45.0021L7.93691 44.9985Z" fill="#66D575"/>
<path d="M49.0723 45.4726C49.0273 45.2855 48.7224 45.3818 48.7044 45.36C48.5168 45.6614 48.0207 45.5416 47.714 45.5452C44.918 45.5743 42.1166 45.5252 39.3243 45.5416C37.8848 45.5507 36.4345 45.527 34.995 45.5416C34.0353 45.5507 33.0685 45.5343 32.1088 45.5416C32.0763 45.5416 31.8292 45.7341 31.4991 45.7359C22.5447 45.8049 12.8002 45.1802 3.96852 45.7232C3.26862 45.7668 3.31011 45.8267 3.24878 46.6294C3.69975 46.4279 4.47901 46.8092 4.69007 46.8129C5.42244 46.8201 6.34962 46.6313 7.21548 46.6313C7.69531 46.6313 8.17874 46.6313 8.65857 46.6313C9.37831 46.6313 10.1035 46.6222 10.8232 46.6313C11.184 46.6367 11.5448 46.624 11.9055 46.6313C12.0931 46.3298 12.5892 46.4496 12.8958 46.446C20.2538 46.3679 27.6893 46.3479 34.995 46.268C39.2467 46.2208 43.7798 46.5041 47.9828 46.268C48.5601 46.2353 49.2942 46.3752 49.0723 45.4726Z" fill="#66D575"/>
<path d="M16.5974 50.8083C16.4765 50.545 16.776 50.3053 16.776 50.2635C16.776 50.2036 16.7796 50.1418 16.776 50.0819C16.7399 49.2919 16.7002 48.1768 16.5956 47.3577C16.5884 47.2977 16.6082 47.2324 16.5956 47.1761C16.2023 47.1488 15.7027 47.1034 15.3329 46.9944V47.3577C15.3329 48.4183 15.2156 49.8022 15.3329 50.8083C15.3599 51.0317 15.7478 52.0306 15.966 52.0815C16.5397 52.214 16.5505 51.0426 16.5974 50.9918C16.6407 50.9446 17.6075 50.9972 17.8583 50.99C17.7032 50.6122 16.7092 50.91 16.5974 50.8083Z" fill="#66D575"/>
<path d="M47.622 49.3572C46.7453 49.597 46.8283 48.8941 46.7201 48.0859C46.675 47.7463 46.7543 47.3468 46.7201 46.9944H45.6359C45.5367 47.3522 45.5963 48.8832 45.6359 49.3572C45.645 49.459 45.8055 49.6206 45.8163 49.7205C45.829 49.8385 45.8109 49.9638 45.8163 50.0837C45.4682 49.9293 45.084 50.2453 44.9126 50.2653C46.1951 50.0347 45.6865 50.6703 45.8145 50.8102C45.9137 50.9173 47.1097 50.6921 47.0772 50.0837C47.0772 50.0728 46.9149 50.1128 46.8987 49.9929C46.8121 49.3391 47.0412 49.5552 47.6184 49.5389C47.5985 49.5134 47.6292 49.4226 47.6184 49.3572H47.622Z" fill="#66D575"/>
<path d="M37.3022 19.3655C37.3167 19.3764 37.3293 19.3855 37.3401 19.3909C37.3293 19.38 37.3167 19.3709 37.3022 19.3655Z" fill="#66D575"/>
<path d="M34.4665 50.5868C34.4105 50.5904 34.3474 50.6031 34.2734 50.6267C34.3492 50.6159 34.4105 50.6013 34.4665 50.5868Z" fill="#66D575"/>
<path d="M36.0792 50.4451C35.897 49.9657 36.3894 49.8131 36.4399 49.7205C36.4616 49.6787 36.4255 49.5988 36.4399 49.5389C35.8176 49.6478 36.0954 48.1768 36.0792 47.6228C36.0683 47.2741 36.2632 46.8946 35.7184 46.9963C35.612 47.0217 35.4604 46.969 35.3576 46.9963C35.1448 47.0526 34.7227 46.8909 34.5315 47.1652C34.2771 47.5302 34.5856 47.8317 34.6361 48.086C34.7894 48.8814 34.7533 48.8614 34.7028 49.6624C34.6758 50.0819 35.0474 50.4342 34.4683 50.5886C34.802 50.5668 34.8363 50.881 34.9968 50.9918C35.3973 51.2697 35.3089 51.1389 35.7184 50.9918C36.1008 50.8538 36.1459 50.6467 36.2054 50.6322C37.1885 50.4034 38.7146 50.9427 39.6869 50.4469C38.4891 50.4088 37.2787 50.476 36.0792 50.4469V50.4451Z" fill="#66D575"/>
<path d="M29.0423 50.4469C28.5499 49.824 29.156 48.0914 28.6978 47.4666C28.5842 47.3123 28.1909 47.3123 28.1422 47.3595C27.9997 47.4975 28.2468 50.8011 28.1422 51.3568C28.8042 51.5929 28.9522 51.0971 29.2245 50.6304C29.1325 50.6104 29.0947 50.5123 29.0441 50.4487L29.0423 50.4469Z" fill="#66D575"/>
<path d="M10.4444 49.2846C10.4228 48.9649 10.3506 47.4267 10.2839 47.3577C10.2406 47.3123 9.73913 47.3867 9.56055 47.3577C9.25028 48.3093 9.34949 49.6079 9.38016 50.6267C9.39279 51.0499 9.36934 51.4767 9.38016 51.898C9.72109 52.0052 9.87442 51.809 10.1017 51.7164C10.1919 51.6801 10.4174 51.8272 10.4697 51.602C10.531 51.3405 10.4643 50.7756 10.4625 50.4451C10.4607 50.1491 10.4625 49.5606 10.4444 49.2846Z" fill="#66D575"/>
<path d="M8.29772 36.8259C8.49976 36.617 9.90497 35.8942 9.92842 35.7979C10.0258 34.1198 9.69031 32.2764 10.1016 30.651C10.089 30.1697 10.098 29.6812 10.1016 29.1981C10.1052 28.744 9.96089 28.0466 10.282 27.7452C10.2459 27.0242 10.309 26.2886 10.282 25.5658C9.6416 25.4641 9.35479 26.0725 9.01927 26.4739C9.03911 26.8262 8.85873 26.8607 8.6585 27.0187C8.4727 27.1658 8.3807 27.2475 8.11734 27.2003C8.18588 30.1988 8.29953 33.4152 8.11734 36.4626C8.10471 36.6697 7.62128 36.8803 8.29772 36.8259Z" fill="#66D575"/>
<path d="M41.8532 49.5353C41.7667 48.8415 41.7288 48.1405 41.6674 47.4431C41.6187 46.8928 41.7757 46.9709 41.1281 46.9963C40.9639 47.0544 40.614 46.9527 40.4047 46.9963C40.2532 47.7209 40.5418 48.4728 40.5797 49.1194C40.5959 49.3863 40.4047 49.5171 40.4065 49.5389C40.4101 49.5988 40.4065 49.6606 40.4065 49.7205C40.4065 49.7822 40.7348 50.1854 40.5869 50.447C40.6501 50.4578 40.7529 50.427 40.7673 50.447C40.798 50.4905 40.6771 50.763 40.8828 50.8156C41.4365 50.9591 41.9488 50.881 42.03 50.2653C41.9705 50.2653 41.9092 50.269 41.8496 50.2653C41.7504 49.5026 41.9687 49.7532 42.5712 49.7205V49.5389C42.3421 49.5698 42.0859 49.5244 41.8532 49.5371V49.5353Z" fill="#66D575"/>
<path d="M48.1631 44.8169L48.7042 44.9985C48.5924 44.7152 48.3994 44.8423 48.1631 44.8169Z" fill="#66D575"/>
<path d="M43.1123 19.7542L43.2404 19.5362L43.1123 19.3909C43.1123 19.5126 43.1123 19.6325 43.1123 19.7542Z" fill="#66D575"/>
<path d="M26.3364 48.6308C26.3273 48.5654 26.3544 48.4891 26.3364 48.4492C26.1542 48.0532 24.3124 48.3638 23.811 48.2675C23.8218 48.3257 23.8055 48.3892 23.811 48.4492C23.8687 48.994 23.8488 49.5461 23.9913 50.0819H22.5482C22.523 49.4244 22.5446 47.9134 22.3679 47.3595C22.2578 47.0162 21.603 47.2215 21.2855 47.1779C21.4822 48.2494 21.0041 50.0238 21.2855 50.9918C21.3126 51.0844 21.5669 51.4749 21.6463 51.5366C22.2001 51.967 22.7142 51.4276 22.7286 50.9918C22.7286 50.9536 22.5519 50.6431 22.5482 50.2653C23.8687 50.2816 25.1963 50.2417 26.5167 50.2653V48.8124C26.4626 48.747 26.3995 48.6889 26.3364 48.6308Z" fill="#66D575"/>
<path d="M18.0386 48.4492C18.0349 48.569 18.0458 48.6925 18.0386 48.8124C18.0241 49.0503 18.0331 49.2991 18.0386 49.5389C18.044 49.7804 18.0349 50.0238 18.0386 50.2653C18.8359 50.0292 19.9795 50.8683 20.039 49.8131C20.1383 48.0442 19.4654 48.451 18.0386 48.4492Z" fill="#66D575"/>
<path d="M39.3243 32.1039C39.5046 32.1039 39.685 32.1039 39.8654 32.1039C40.0657 32.1039 40.5599 32.1911 40.5906 31.9986L40.0458 23.3864C40.0386 22.9034 40.0584 22.4166 40.0458 21.9335C40.0097 20.5333 39.8474 19.1567 39.8636 17.7564L38.6027 18.3013C38.6171 18.481 38.5937 18.6663 38.6027 18.8461C38.7272 21.4777 38.8372 24.1075 38.9707 26.739C39.0609 28.5352 38.6713 30.4058 39.3243 32.1039Z" fill="#66D575"/>
<path d="M32.9854 48.1096C32.8717 48.0369 30.9939 48.0515 30.6656 48.0841C30.6043 48.0896 30.4924 48.0696 30.4852 48.0841C30.4455 48.1604 30.3355 49.7314 30.3499 49.8167C30.4419 50.3362 32.8934 50.0547 33.3678 49.8131C33.0774 49.4989 33.2523 48.2785 32.9854 48.1096Z" fill="#66D575"/>
<path d="M20.2033 44.4537C20.2682 44.4646 20.344 44.4337 20.3837 44.4537L20.5641 44.0905V43.9088C20.2376 43.9088 19.958 43.769 19.6621 43.7272C19.6026 43.7182 19.5413 43.7363 19.4817 43.7272C19.5936 43.1733 19.2112 43.3967 18.7602 43.364C18.7007 43.3604 18.6393 43.3695 18.5798 43.364C18.5347 43.295 18.4373 43.2441 18.3994 43.1824C17.5606 42.8464 16.7435 42.5286 15.874 42.2743C15.9804 42.9881 14.7628 42.5086 14.4291 42.6394C14.4219 42.0364 14.4399 41.4262 14.4291 40.8214C14.4201 40.2784 14.4327 39.7299 14.4291 39.1869C14.4219 37.7975 14.4363 36.4009 14.4273 35.0116C14.2632 34.9444 14.0792 35.6727 14.0683 35.7362C14.0593 35.7943 14.0756 35.8579 14.0683 35.9178C14.0611 35.9778 14.0737 36.0395 14.0683 36.0994C13.9872 36.9058 14.0774 37.6777 14.0683 38.4604C14.0683 38.5821 14.0683 38.702 14.0683 38.8237C14.0683 39.0652 14.0683 39.3086 14.0683 39.5501C14.0737 40.4564 14.0683 41.3681 14.0683 42.2743V42.8192C14.108 42.8246 14.2686 42.9844 14.5031 43.0099C14.9414 43.0553 15.5854 42.8264 15.8722 43.1824C16.3484 43.1769 16.8409 43.1552 17.3153 43.1824C16.6984 43.749 14.8855 44.0178 14.2487 43.364C13.6895 43.4367 13.3125 43.3676 12.8056 43.0008C12.6595 44.737 13.4929 44.243 14.7899 44.2721C16.1734 44.303 17.7915 44.401 19.1192 44.0905C19.1787 44.0905 19.24 44.0941 19.2995 44.0905V44.4537C19.5882 44.4646 19.9381 44.4119 20.2015 44.4537H20.2033Z" fill="#66D575"/>
<path d="M12.9878 27.9268C12.986 27.6235 12.995 27.3202 12.9878 27.0187C12.9788 26.6627 13.0221 26.2741 12.9878 25.929C12.9554 25.6021 12.9463 25.5567 12.627 25.3842C12.0877 25.2825 11.5068 24.8266 10.8232 25.0209C10.825 26.6537 10.7348 28.2973 10.6428 29.9245C10.6013 30.6528 10.4967 31.3393 10.4624 32.1039C10.439 32.6433 10.2369 35.4147 10.3073 35.6199C10.4678 36.094 11.1659 35.8724 11.5447 35.9178C11.7179 35.6417 12.3132 35.7035 12.627 35.7362V34.1016C12.627 32.3618 12.5188 30.4494 12.6162 28.735C12.6361 28.3953 12.5765 28.0539 12.9878 27.9268Z" fill="#66D575"/>
<path d="M29.0423 48.086C29.0279 47.7845 29.055 47.4776 29.0423 47.1761H27.7778C27.7616 48.0006 28.494 49.6896 27.4171 49.9021C27.3161 49.9221 27.1717 49.9021 27.0563 49.9021C26.8759 49.9021 26.6955 49.9021 26.5151 49.9021V50.2653C26.995 50.2744 27.4784 50.2581 27.9582 50.2653C28.0141 50.4488 27.7724 50.723 27.7778 50.8084C27.7796 50.8411 28.0701 51.3296 28.1386 51.3532C28.2432 50.7993 27.9961 47.4957 28.1386 47.3559C28.1873 47.3087 28.5824 47.3087 28.6942 47.463C29.1524 48.0896 28.5463 49.8222 29.0387 50.4433V50.1945C29.6575 50.0075 29.1199 49.8949 29.0387 49.172C29.0009 48.8306 29.0568 48.4383 29.0387 48.0823L29.0423 48.086Z" fill="#E7F5A6"/>
<path d="M14.6113 16.6668C14.6167 16.5596 14.7411 16.24 14.7808 15.884C14.66 16.4597 13.556 16.4143 13.5271 16.2109C13.3846 15.1866 13.9619 15.6642 14.7916 15.5753C14.8133 15.1557 14.7916 14.7253 14.7916 14.304C14.5391 14.2549 13.6101 14.3748 13.5271 14.304C13.4983 14.2785 13.5398 13.9026 13.5271 13.7591C13.4929 13.3596 13.4911 13.3795 13.3467 13.0327C13.3467 14.1805 13.3449 15.3355 13.3467 16.4833C13.7418 16.5269 14.3533 16.3199 14.6095 16.6649L14.6113 16.6668ZM13.5307 14.4874C13.7382 14.6018 14.5752 14.629 14.6131 14.669C14.6473 14.7053 14.5914 15.0649 14.6131 15.212C13.7707 15.1866 13.3648 15.5117 13.5307 14.4874Z" fill="#E7F5A6"/>
<path d="M14.781 15.884C14.79 15.8458 14.7936 15.8041 14.7918 15.7587C14.79 15.8004 14.7864 15.8422 14.781 15.884Z" fill="#E7F5A6"/>
<path d="M36.7989 13.7609L38.0616 13.5811C38.1536 13.9806 37.7423 14.0478 37.5205 14.3057L38.0616 14.4874C38.067 14.0769 38.2402 13.3159 38.242 12.6712C38.242 12.5495 38.242 12.4297 38.242 12.308H38.0616C38.2781 13.1707 37.3978 12.742 36.7989 13.0344C36.7773 13.2724 36.8079 13.5212 36.7989 13.7609Z" fill="#E7F5A6"/>
<path d="M9.20154 47.1779V50.4469H5.41162C5.8229 50.7593 8.64054 50.6649 9.38012 50.6286C9.34946 49.6097 9.25024 48.3112 9.56051 47.3595C9.54067 47.3559 9.42522 47.098 9.20154 47.1779Z" fill="#E7F5A6"/>
<path d="M36.7988 6.13311L37.8811 5.95149C37.8487 5.54286 37.7585 5.47566 37.7008 5.22504C37.8379 6.02051 37.441 5.739 36.7988 5.76988C36.8187 5.88248 36.7844 6.01687 36.7988 6.13311Z" fill="#E7F5A6"/>
<path d="M36.7988 6.49633C36.9594 6.65797 36.9089 6.64344 37.1596 6.67794C37.2173 6.68521 37.2805 6.67431 37.34 6.67794C37.3851 6.67976 37.6503 6.44729 37.8811 6.67794C37.8902 6.49815 37.8721 6.3129 37.8811 6.13129L36.7988 6.49451V6.49633Z" fill="#E7F5A6"/>
<path d="M31.0283 14.7525C31.086 15.5407 30.985 16.4379 30.8461 17.2115C31.0427 17.2025 31.3007 17.168 31.3873 17.3932C31.5388 17.3405 31.6524 17.2461 31.748 17.2115V16.8483C31.5785 16.9155 31.3746 16.9282 31.2087 17.0299V14.3057C31.003 14.362 30.6026 14.4201 30.3049 14.4873C30.5827 14.5654 30.9904 14.2367 31.0283 14.7525Z" fill="#E7F5A6"/>
<path d="M28.6814 15.0322L29.5815 14.8506V17.5748C29.6393 17.5584 29.7078 17.5911 29.7637 17.5748V14.669C29.4354 14.7216 29.0241 14.629 28.6796 14.669C28.6706 14.7888 28.6886 14.9123 28.6796 15.0322H28.6814Z" fill="#E7F5A6"/>
<path d="M32.2893 16.3035C32.6753 16.5959 32.7601 16.1509 32.8305 16.1219C32.4715 15.4953 32.4589 14.6453 32.4697 13.9425C32.4156 13.9606 32.3434 13.9225 32.2893 13.9425C32.2262 14.698 32.3777 15.5679 32.2893 16.3035Z" fill="#E7F5A6"/>
<path d="M35.1753 14.6689H35.3557V12.1263C35.2204 12.2825 35.2132 12.2553 35.1753 12.4896C35.0725 13.1416 35.2637 13.9988 35.1753 14.6689Z" fill="#E7F5A6"/>
<path d="M20.2034 39.7317C20.299 39.7026 20.4505 39.7499 20.5641 39.7317C20.4162 38.4786 20.3892 36.1248 20.3856 34.6483C20.2791 36.3137 20.6074 38.1171 20.2034 39.7317Z" fill="#E7F5A6"/>
<path d="M20.3836 32.1039C19.9164 32.6125 15.7134 31.2812 14.972 30.8326C14.9793 30.8926 14.963 30.9543 14.972 31.0143C15.0568 31.5863 15.2805 32.1657 15.1524 32.8304C15.1867 32.8595 15.2913 32.8013 15.3328 32.8304V31.1959C16.7344 31.4719 15.9155 32.1148 16.0544 33.1936C16.1049 33.2172 16.1879 33.1682 16.2348 33.1936L16.4151 31.7389C17.6472 31.4193 16.9852 32.8467 17.1367 33.7385C17.1908 33.7566 17.263 33.7203 17.3171 33.7385V32.1039C18.5906 31.9042 18.1685 33.0393 18.219 33.9201H18.3994C18.3994 33.3771 18.3976 32.8286 18.3994 32.2837C19.4655 32.0041 19.2544 33.1936 19.3031 33.9982L18.3976 34.1017V34.4649C18.7548 34.5303 19.1191 34.5812 19.4799 34.6465C19.7487 34.6956 20.0968 34.6102 20.3836 34.6465C20.3836 34.5194 20.3836 34.3977 20.3836 34.2851C18.9387 34.5884 19.6152 33.4733 19.4799 32.4672H20.564C20.564 32.044 20.564 31.6208 20.564 31.1977C20.2339 31.3139 20.4558 32.0277 20.3836 32.1058V32.1039Z" fill="#E7F5A6"/>
<path d="M33.0107 41.3663C32.6914 41.3045 32.5381 41.201 32.1088 41.1846C31.8689 41.1756 31.6271 41.1901 31.3872 41.1846C31.5622 41.201 32.1394 41.4879 32.4695 41.4571C32.2332 41.7476 31.8598 41.8021 31.5748 42.0164C31.1653 42.3234 31.6939 42.5104 31.0283 42.2743C30.9399 42.2435 30.7793 42.2943 30.6675 42.2743C30.6873 42.3851 30.6585 42.5195 30.6675 42.6357C30.5502 42.6466 30.4258 42.623 30.3085 42.6357C29.0711 42.7756 28.8636 42.3361 28.685 41.1828C28.566 41.1792 28.4451 41.1828 28.3243 41.1828C27.9581 41.4444 27.1698 41.5951 27.2419 42.0909C27.4386 41.9601 28.4127 41.2809 28.5028 41.3644C28.6273 41.6241 28.6345 42.7629 28.685 42.8155C28.7987 42.9336 31.5189 42.9554 31.9302 42.9953L31.2104 42.7265L32.6517 41.7277L32.8339 42.8174C32.9241 42.7738 33.2091 42.8065 33.5555 42.6357V42.4541C33.4076 42.5286 33.1694 42.5268 33.0161 42.6357C33.0594 42.1962 32.7347 41.7458 33.0143 41.3644L33.0107 41.3663Z" fill="#E7F5A6"/>
<path d="M33.5518 42.4559C33.7863 42.3379 33.9938 42.1617 34.093 41.9111C33.8188 42.04 33.5121 41.9583 33.5518 42.4559Z" fill="#E7F5A6"/>
<path d="M34.0932 41.5479C34.0715 41.6586 34.1256 41.8294 34.0932 41.9111C34.1779 41.8711 34.2483 41.7349 34.2736 41.7295C34.2573 41.6423 34.1761 41.5569 34.0932 41.5479Z" fill="#E7F5A6"/>
<path d="M14.6113 19.2093C14.7881 18.9169 14.7629 18.5555 15.1525 18.6645C15.1525 18.4829 15.1525 18.3013 15.1525 18.1196C14.9757 17.9199 14.6673 17.6983 14.6113 17.3932C14.8224 18.1614 13.9403 18.047 13.3486 18.1196C13.3486 18.1796 13.3486 18.2413 13.3486 18.3013H14.6131V19.2093H14.6113Z" fill="#E7F5A6"/>
<path d="M16.5955 21.5703C16.7326 21.6593 16.8642 21.6956 16.9562 21.7519V19.5725C16.9147 19.5435 16.8137 19.6016 16.7758 19.5725C16.2978 20.0683 16.8029 20.9873 16.5955 21.5703Z" fill="#E7F5A6"/>
<path d="M17.678 22.2967C17.7339 22.3113 17.8025 22.2804 17.8584 22.2967C17.8494 22.2386 17.862 22.1751 17.8584 22.1151C17.8367 21.7646 17.7862 20.724 17.8584 20.4806C17.9341 20.2245 18.156 20.2917 18.3995 20.299C18.0766 20.1537 17.7105 20.1355 17.678 20.1174C17.7105 20.891 17.3118 21.5412 17.678 22.2967Z" fill="#E7F5A6"/>
<path d="M19.6621 23.3865V21.0237H20.2032C19.8479 20.8729 19.6765 20.9092 19.4817 20.842V23.203C19.543 23.2284 19.6007 23.361 19.6621 23.3846V23.3865Z" fill="#E7F5A6"/>
<path d="M15.874 21.0254C15.9371 21.0817 15.9858 21.1562 16.0544 21.2071C16.1446 20.5187 15.8379 19.5798 16.2348 19.0277C16.1626 18.946 16.4296 18.4411 15.874 18.8461C16.0057 19.4236 15.782 20.388 15.874 21.0254Z" fill="#E7F5A6"/>
<path d="M26.0642 41.3662C26.5548 41.7748 26.4502 42.6756 27.0581 42.2725L26.1562 41.1828C26.0353 41.1846 25.9162 41.181 25.7954 41.1828C25.7503 41.5605 25.413 41.7058 25.2542 41.9092C25.1352 42.06 25.0558 42.2452 24.8953 42.3633C25.4779 42.8246 25.689 41.1864 26.0642 41.3644V41.3662Z" fill="#E7F5A6"/>
<path d="M23.4502 42.2743C22.9361 42.258 22.6691 41.6332 22.5483 41.1846C22.4274 41.1846 22.3084 41.1846 22.1875 41.1846V41.5479C23.0516 41.6641 22.5501 42.8391 23.4502 42.2743Z" fill="#E7F5A6"/>
<path d="M13.1681 24.6577C13.4983 24.5742 14.0575 24.7158 14.4309 24.6577C14.4327 24.4743 14.4272 24.2854 14.4309 24.1129C12.618 24.9846 12.6631 22.8688 14.4309 23.7496C14.4363 23.5662 14.4218 23.3174 14.4309 23.2048C14.0214 23.2375 13.5686 23.1576 13.1681 23.2048C13.114 23.2121 12.9427 23.4009 12.8074 23.3864C12.8074 23.5335 12.9373 24.1165 12.9878 24.2945C13.0112 24.378 13.1754 24.5124 13.1681 24.6577Z" fill="#E7F5A6"/>
<path d="M39.5047 49.5389H36.4381C36.4237 49.5988 36.4597 49.6787 36.4381 49.7205H40.4066C40.4066 49.6606 40.4102 49.5988 40.4066 49.5389H39.5047Z" fill="#E7F5A6"/>
<path d="M18.0388 48.4492C17.7393 48.816 17.7303 49.8639 18.0388 50.2653C18.0352 50.0238 18.0442 49.7804 18.0388 49.5388C18.0334 49.2991 18.0243 49.0503 18.0388 48.8124C18.046 48.6925 18.0352 48.569 18.0388 48.4492Z" fill="#E7F5A6"/>
<path d="M16.7759 50.2654L17.6796 50.1745L16.7759 50.0837C16.7795 50.1437 16.7759 50.2054 16.7759 50.2654Z" fill="#E7F5A6"/>
<path d="M14.2507 43.364C14.8081 43.2914 15.1869 43.1915 15.8742 43.1824C15.5873 42.8264 14.9452 43.0535 14.505 43.0099C14.2687 42.9863 14.1082 42.8246 14.0703 42.8192C13.6698 42.7719 13.2153 42.8537 12.8058 42.8192C12.8256 42.4087 12.6741 42.0328 12.988 41.7295C13.19 41.5333 13.5021 41.5769 13.7095 41.7295C13.852 41.8348 13.9332 42.1327 14.0703 42.2743C14.0703 41.3681 14.0757 40.4564 14.0703 39.5501C13.8159 39.5011 12.8346 39.6627 12.8058 39.4575C12.6615 38.4332 13.2423 38.9108 14.0703 38.8237C14.0703 38.702 14.0703 38.5821 14.0703 38.4604C13.733 38.3987 13.2026 38.5549 12.9212 38.4713C12.7679 38.4259 12.8202 38.1027 12.6272 37.9156C12.6272 39.5429 12.6813 41.1937 12.6272 42.8192C12.7499 42.8192 12.7679 42.9717 12.8076 43.0008C13.3145 43.3676 13.6915 43.4367 14.2507 43.364ZM12.8076 39.9133H13.8917V40.4564H12.8076V39.9133ZM12.8076 40.8214H13.8917V41.3644H12.8076V40.8214Z" fill="#E7F5A6"/>
<path d="M20.4758 44.9985C20.2232 44.9567 20.5696 44.826 20.566 44.8169C20.5335 44.7388 20.4036 44.4628 20.3856 44.4537C20.3459 44.4337 20.2701 44.4646 20.2052 44.4537C20.2088 44.9459 19.9923 44.9622 19.5829 45.0076C17.5391 45.2346 15.0804 44.8187 12.9897 44.9985V45.1801C15.5115 45.2019 18.0442 45.1856 20.566 45.1801C21.5256 45.1783 22.4925 45.1874 23.4522 45.1801C24.4118 45.1729 25.3787 45.1892 26.3383 45.1801C27.2926 45.1711 28.3533 45.0094 29.2245 44.9985H20.4758Z" fill="#E7F5A6"/>
<path d="M36.0772 27.3819C35.4296 27.7107 34.7911 27.9068 34.093 28.1084C32.9042 28.4516 31.7371 28.7767 30.487 28.8367C30.4113 29.1309 30.7847 28.9275 30.8514 29.1381C30.8929 29.2725 30.837 29.4269 30.8478 29.5613C30.8713 29.8501 30.9037 31.3066 30.8388 31.3684C30.7973 31.4083 30.1479 31.372 29.9477 31.5591L29.7655 29.1981C29.7186 29.1817 29.6482 29.2053 29.5851 29.1981C29.4624 29.6975 29.7727 31.2031 29.5851 31.3774C29.3308 31.6117 29.181 31.5917 28.8636 31.5591C28.8654 31.619 28.8618 31.6807 28.8636 31.7407C29.5797 31.7043 30.3157 31.7915 31.0282 31.7407C31.9536 31.6753 32.7274 31.3811 33.5536 31.1958V31.0142C33.3029 31.0705 32.9277 30.9779 32.6499 31.0142V28.6514H33.734C33.7376 29.169 33.725 29.6902 33.7268 30.2097C33.7268 30.4548 33.9126 30.6256 33.9126 30.6492H34.093C34.0767 30.2278 34.1164 29.7992 34.093 29.3779C34.0894 29.3179 34.0948 29.2562 34.093 29.1963C34.0821 28.9293 33.8891 28.5025 33.9108 28.4716C33.9487 28.4226 34.8975 28.2065 35.0833 28.1029C35.2763 28.1029 35.1392 28.9656 35.1753 29.1944C35.1843 29.2489 35.3412 29.3869 35.3557 29.5577H35.5361C35.4747 28.675 35.2276 27.6035 36.2576 27.5599C36.254 27.5 36.2612 27.4382 36.2576 27.3783H36.0772V27.3819ZM32.4587 31.1849C32.4154 31.2303 31.4232 31.3211 31.2086 31.3756C31.3709 30.1316 30.561 28.7277 32.2891 28.833C32.1574 29.2798 32.6823 30.9525 32.4587 31.1849Z" fill="#E7F5A6"/>
<path d="M12.988 25.9291C13.0222 26.2741 12.979 26.6628 12.988 27.0187H14.4311C14.4311 26.9588 14.4311 26.8971 14.4311 26.8371L13.1647 26.7336V25.7474H14.4311C14.4311 25.6875 14.4311 25.6258 14.4311 25.5658C13.9296 25.6094 13.4642 25.4841 12.988 25.3842C12.8779 25.3606 12.739 25.406 12.6272 25.3842C12.9465 25.5567 12.9555 25.6021 12.988 25.9291Z" fill="#E7F5A6"/>
<path d="M14.0701 36.0994C14.0755 36.0395 14.0629 35.9777 14.0701 35.9178C13.556 36.0921 12.9607 35.7707 12.627 35.7362C12.3131 35.7035 11.7178 35.6417 11.5447 35.9178C11.9199 35.9632 12.3113 36.0722 12.627 36.0994C13.1014 36.1412 13.5939 36.0703 14.0701 36.0994Z" fill="#E7F5A6"/>
<path d="M45.6379 49.3573C44.7684 49.4045 43.8773 49.2937 43.0078 49.35C42.7679 49.3663 42.6182 49.5334 42.5713 49.5389V49.7205C43.6464 49.6624 44.7413 49.7623 45.8182 49.7205C45.8074 49.6206 45.6469 49.459 45.6379 49.3573Z" fill="#E7F5A6"/>
<path d="M18.9405 25.2026C19.0235 25.5458 19.6765 25.7238 19.8425 25.5676C19.8876 25.524 19.8641 24.3689 19.8208 24.3181C19.7721 24.2618 19.1191 24.1637 18.9423 24.1147C18.9369 24.2945 18.9423 24.4779 18.9423 24.6595C18.9405 24.823 18.9099 25.0736 18.9423 25.2044L18.9405 25.2026Z" fill="#E7F5A6"/>
<path d="M18.9425 31.5591C20.0248 31.7607 19.6045 31.1468 19.6622 30.286C18.5799 30.0844 19.0002 30.6982 18.9425 31.5591Z" fill="#E7F5A6"/>
<path d="M28.059 43.7182C25.5516 43.68 23.0389 43.9052 20.564 43.9088V44.0905C21.1953 44.0596 21.502 43.9379 21.6463 44.6353C21.7058 44.6353 21.7671 44.6371 21.8267 44.6353V43.9088C22.642 43.9379 23.0713 43.6056 22.909 44.6353C22.9685 44.6371 23.0298 44.6353 23.0894 44.6353V43.9088C23.7604 43.9615 24.3395 43.6146 24.1717 44.4537H24.3521C24.2168 43.6691 24.5974 43.9306 25.2558 43.907V44.8169C25.3749 44.8224 25.4957 44.8133 25.6148 44.8169V43.907L26.4121 43.9052L26.5167 44.8169C26.6376 44.8187 26.7566 44.8151 26.8775 44.8169V43.907C27.7109 43.8507 28.2827 43.8035 28.1402 44.8169C28.2611 44.8169 28.3801 44.8169 28.501 44.8169L28.4126 44.0886C29.1594 44.1813 29.9928 43.6709 29.7637 44.8169C29.8232 44.8169 29.8845 44.8169 29.9441 44.8169V44.0905C30.1443 44.2067 30.9578 44.0796 30.9957 44.1177C31.0751 44.1958 30.9975 44.3865 31.0264 44.4537H31.2068V43.9088C30.1876 44.0923 29.0403 43.7327 28.059 43.7182Z" fill="#E7F5A6"/>
<path d="M38.4223 39.5465C38.4818 39.2359 38.213 39.4175 38.0615 39.3667C38.0038 39.3485 37.928 39.3885 37.8811 39.3667C37.6069 39.2396 37.7206 39.0779 37.7007 38.8219C37.6629 38.3442 37.726 37.8484 37.7007 37.3689L38.6009 37.5487C38.6406 37.358 38.3844 37.2745 38.2401 37.1873C38.0579 37.0765 37.6989 37.0547 37.5186 36.8241C37.5384 38.0881 37.367 39.4466 37.6989 40.638L38.2383 40.2766C37.4085 40.4745 37.3688 39.2759 38.4187 39.5465H38.4223Z" fill="#E7F5A6"/>
<path d="M38.4224 22.8416C38.4224 22.7817 38.4224 22.7199 38.4224 22.66C38.0617 22.4983 37.7153 22.8089 37.5205 22.8416C37.7821 22.7907 38.141 22.8779 38.4224 22.8416Z" fill="#E7F5A6"/>
<path d="M37.5204 22.8416C37.4049 22.8598 36.9991 22.8616 36.981 22.8416C36.4723 22.2786 37.9677 22.1025 38.4223 22.117C38.3808 21.988 38.3682 21.9844 38.2419 21.9354C38.1806 21.9118 37.9822 21.9299 37.8811 21.9354C37.7639 21.9408 37.634 21.919 37.5204 21.9354C37.091 21.9971 37.1289 22.4766 36.7988 21.5721C36.779 22.2568 36.7465 23.0795 36.7988 23.7515C37.0243 23.3102 36.9323 22.9597 37.5204 22.8434V22.8416Z" fill="#E7F5A6"/>
<path d="M37.3401 29.5613C36.8747 29.7611 37.322 30.1843 37.3401 30.2878L38.6028 30.1062C38.5956 29.9863 38.6118 29.8628 38.6028 29.743L37.3419 29.9228C37.3473 29.8047 37.3274 29.6776 37.3419 29.5613H37.3401Z" fill="#E7F5A6"/>
<path d="M14.2524 34.8282H12.6272V35.1896L14.0684 35.008V35.7344C14.0793 35.669 14.2651 34.9426 14.4292 35.0098C14.4382 36.3991 14.4238 37.7957 14.431 39.1851C14.7864 37.8284 14.5789 36.2447 14.6114 34.8263C14.1442 34.3995 14.7178 33.437 14.2506 33.0102C14.2398 33.2517 14.2615 33.4969 14.2506 33.7367L12.8039 33.6313V32.8268H14.2506C14.2687 32.7123 14.238 32.5816 14.2506 32.4635C14.2037 32.5198 12.8635 32.7033 12.8075 32.6452V31.7353C13.0709 31.7789 14.1929 31.6753 14.2506 31.7353C14.2705 31.7571 14.2723 32.2165 14.2597 32.3927C14.3048 32.1058 14.4238 31.8606 14.4292 31.3702C14.1731 31.4901 12.8112 31.6808 12.8021 31.4592C12.8544 30.1207 13.3144 30.4712 14.4292 30.4622C14.4346 30.1498 14.2488 29.9464 14.2488 29.9173L12.9879 30.2805C12.9789 29.496 12.9933 28.7041 12.9879 27.9196C12.5767 28.0467 12.6362 28.3881 12.6163 28.7277C12.5189 30.444 12.6272 32.3546 12.6272 34.0944C13.5291 33.8075 14.5573 33.5133 14.2524 34.8227V34.8282Z" fill="#E7F5A6"/>
<path d="M14.2613 32.3981C14.2577 32.4199 14.2541 32.4435 14.2505 32.4653C14.2541 32.4599 14.2577 32.4345 14.2613 32.3981Z" fill="#E7F5A6"/>
<path d="M20.2014 43.3603C20.2627 43.2931 19.9957 41.8729 20.205 41.546C20.1455 41.546 20.0841 41.546 20.0246 41.546C19.9885 41.6623 19.8587 41.8075 19.8442 41.9092C19.8136 42.1417 19.8677 42.3996 19.8442 42.6357L19.3049 42.4559L19.4834 42.9989C18.5184 43.1987 18.4571 42.7937 18.4011 41.9111C18.3488 41.8911 18.2749 41.9292 18.2207 41.9111C18.2099 42.3451 18.1594 42.7883 18.4011 43.1824C18.439 43.2441 18.5364 43.295 18.5815 43.364C18.641 43.3694 18.7024 43.3603 18.7619 43.364C19.2129 43.3967 19.5953 43.1733 19.4834 43.7272C19.543 43.7363 19.6043 43.7181 19.6638 43.7272C19.5773 43.0752 20.0859 43.4875 20.2014 43.3622V43.3603Z" fill="#E7F5A6"/>
<path d="M38.1013 21.4577L38.242 21.5685C38.3827 21.1363 38.5252 21.376 38.242 20.842L38.1013 21.4577Z" fill="#E7F5A6"/>
<path d="M38.7832 30.8326C38.7796 30.7128 38.7886 30.5893 38.7832 30.4694C37.9931 30.3368 37.9679 30.958 38.7832 30.8326Z" fill="#E7F5A6"/>
<path d="M39.144 40.0949L38.4207 40.1857L39.144 40.2765C39.144 40.2166 39.1458 40.1548 39.144 40.0949Z" fill="#E7F5A6"/>
<path d="M29.4969 20.4806C29.7982 20.546 30.0164 20.1464 30.1247 20.1174C30.2239 19.6288 30.0543 19.2765 29.9443 18.8461C28.9431 18.5628 29.0784 20.3916 29.4969 20.4806Z" fill="#E7F5A6"/>
<path d="M31.3909 20.5987C31.3386 20.3971 31.05 20.5024 31.0265 20.4788C30.5395 20.2173 30.572 21.4032 30.6658 21.7501C31.4901 21.9989 31.5767 21.3251 31.3909 20.5987Z" fill="#E7F5A6"/>
<path d="M31.9285 20.6622C31.9916 20.8457 32.255 21.5358 32.3813 21.5703C33.0252 21.4958 32.8106 20.7331 32.8286 20.299L31.9267 20.4806C31.9483 20.5278 31.9068 20.6059 31.9267 20.6622H31.9285Z" fill="#E7F5A6"/>
<path d="M32.4678 19.7524C32.4046 19.5635 32.6481 19.4091 32.6499 19.3891C32.6752 19.2003 32.5237 18.9351 32.5507 18.7517C32.5814 18.5446 33.0504 18.3176 32.7401 18.116L32.1106 19.3891C32.1828 19.4436 32.3289 19.8486 32.4696 19.7524H32.4678Z" fill="#E7F5A6"/>
<path d="M31.5678 24.8375C30.4854 24.6359 30.9057 25.2498 30.848 26.1107C31.9303 26.3122 31.51 25.6984 31.5678 24.8375Z" fill="#E7F5A6"/>
<path d="M33.5175 36.9258C33.458 35.9959 33.4923 35.4892 32.4695 35.7344V37.3707H33.3714C33.3768 37.2854 33.5302 37.131 33.5175 36.9276V36.9258Z" fill="#E7F5A6"/>
<path d="M31.207 38.0027C32.2135 39.4629 32.7872 39.0234 32.2893 37.3689C32.1143 37.3144 31.7788 37.407 31.5677 37.3689C31.6994 38.0699 31.1583 37.8811 31.207 38.0027Z" fill="#E7F5A6"/>
<path d="M23.36 43.0008H27.0579V42.8192H22.0071V43.1806C22.44 43.3749 23.1183 43.0008 23.36 43.0008Z" fill="#E7F5A6"/>
<path d="M16.9583 38.0954V39.5501H17.8602C17.8764 38.7038 18.0766 37.9301 16.9583 38.0954ZM17.678 39.3685H17.1386V38.4586H17.678V39.3685Z" fill="#E7F5A6"/>
<path d="M17.3171 34.2833C16.9924 34.227 17.1818 35.4929 17.1349 35.738H18.0387C18.0116 34.7337 18.3579 34.5267 17.3153 34.2833H17.3171ZM17.8583 35.5546H17.3189V34.6447H17.8583V35.5546Z" fill="#E7F5A6"/>
</svg>
